<svg xmlns="http://www.w3.org/2000/svg" xmlns:xlink="http://www.w3.org/1999/xlink" width="500" zoomAndPan="magnify" viewBox="0 0 375 374.999991" height="500" preserveAspectRatio="xMidYMid meet" version="1.0"><defs><g/><clipPath id="id1"><path d="M 70 95.101562 L 87 95.101562 L 87 112 L 70 112 Z M 70 95.101562 " clip-rule="nonzero"/></clipPath><clipPath id="id2"><path d="M 81 112 L 96.75 112 L 96.75 123 L 81 123 Z M 81 112 " clip-rule="nonzero"/></clipPath><clipPath id="id3"><path d="M 9 95.101562 L 26 95.101562 L 26 112 L 9 112 Z M 9 95.101562 " clip-rule="nonzero"/></clipPath><clipPath id="id4"><path d="M 37 203 L 59 203 L 59 240.601562 L 37 240.601562 Z M 37 203 " clip-rule="nonzero"/></clipPath></defs><g clip-path="url(#id1)"><path fill="#ffffff" d="M 76.925781 109.84375 C 74.101562 108.996094 72.03125 106.363281 72.03125 103.25 C 72.03125 99.453125 75.101562 96.367188 78.875 96.367188 C 82.648438 96.367188 85.71875 99.453125 85.71875 103.25 C 85.71875 106.785156 83.050781 109.703125 79.632812 110.085938 L 79.367188 111.28125 C 83.554688 111.023438 86.886719 107.523438 86.886719 103.25 C 86.886719 98.804688 83.292969 95.191406 78.875 95.191406 C 74.457031 95.191406 70.863281 98.804688 70.863281 103.25 C 70.863281 106.921875 73.324219 110.023438 76.671875 110.988281 L 76.925781 109.84375 " fill-opacity="1" fill-rule="nonzero"/></g><path fill="#ffffff" d="M 59.230469 127.695312 C 66.558594 127.121094 72.742188 122.964844 76.164062 116.386719 C 75.894531 116.128906 75.726562 115.757812 75.738281 115.355469 C 75.734375 115.269531 75.746094 115.171875 75.769531 115.078125 L 76.035156 113.863281 C 73.03125 121.308594 66.597656 126.042969 58.839844 126.542969 C 59.027344 126.898438 59.160156 127.285156 59.230469 127.695312 " fill-opacity="1" fill-rule="nonzero"/><path fill="#ffffff" d="M 78.335938 117.132812 C 74.609375 124.894531 67.410156 129.714844 58.878906 130.046875 C 58.648438 130.507812 58.328125 130.914062 57.941406 131.242188 C 67.425781 131.238281 75.457031 126.015625 79.480469 117.441406 L 78.335938 117.132812 " fill-opacity="1" fill-rule="nonzero"/><path fill="#ffffff" d="M 81.359375 115.507812 L 80.871094 115.300781 C 80.898438 115.332031 80.925781 115.367188 80.949219 115.402344 C 81.144531 115.707031 81.207031 116.070312 81.128906 116.425781 C 81.109375 116.503906 81.085938 116.582031 81.054688 116.65625 L 81.519531 116.851562 C 81.492188 116.785156 81.46875 116.71875 81.449219 116.648438 C 81.34375 116.285156 81.316406 115.898438 81.359375 115.507812 " fill-opacity="1" fill-rule="nonzero"/><path fill="#ffffff" d="M 79.097656 112.496094 C 79.148438 112.507812 79.195312 112.519531 79.242188 112.542969 L 82.101562 113.753906 C 82.398438 113.386719 82.769531 113.109375 83.171875 112.933594 L 79.695312 111.457031 C 79.582031 111.410156 79.46875 111.375 79.351562 111.347656 L 79.097656 112.496094 " fill-opacity="1" fill-rule="nonzero"/><path fill="#ffffff" d="M 78.671875 114.421875 L 79.019531 114.515625 L 78.683594 114.371094 Z M 78.671875 114.421875 " fill-opacity="1" fill-rule="nonzero"/><g clip-path="url(#id2)"><path fill="#ffffff" d="M 93.886719 121.523438 C 93.757812 121.523438 93.636719 121.5 93.523438 121.449219 L 83.167969 117.058594 C 82.886719 116.9375 82.675781 116.675781 82.574219 116.324219 C 82.460938 115.921875 82.496094 115.464844 82.675781 115.03125 C 82.957031 114.367188 83.542969 113.898438 84.101562 113.898438 C 84.230469 113.898438 84.351562 113.921875 84.464844 113.972656 L 94.816406 118.363281 C 95.101562 118.480469 95.3125 118.742188 95.414062 119.097656 C 95.53125 119.496094 95.492188 119.957031 95.308594 120.390625 C 95.03125 121.058594 94.445312 121.523438 93.886719 121.523438 Z M 96.539062 118.769531 C 96.335938 118.066406 95.886719 117.539062 95.273438 117.277344 L 84.917969 112.886719 C 84.664062 112.777344 84.386719 112.722656 84.101562 112.722656 C 83.785156 112.722656 83.472656 112.800781 83.171875 112.933594 C 82.769531 113.109375 82.398438 113.386719 82.101562 113.753906 C 81.902344 113.996094 81.726562 114.269531 81.601562 114.574219 C 81.472656 114.878906 81.394531 115.191406 81.359375 115.507812 C 81.316406 115.898438 81.34375 116.285156 81.449219 116.648438 C 81.46875 116.71875 81.492188 116.785156 81.519531 116.851562 C 81.742188 117.453125 82.160156 117.90625 82.714844 118.144531 L 93.070312 122.535156 C 93.328125 122.644531 93.601562 122.699219 93.886719 122.699219 C 94.917969 122.699219 95.925781 121.953125 96.390625 120.84375 C 96.671875 120.164062 96.726562 119.429688 96.539062 118.769531 " fill-opacity="1" fill-rule="nonzero"/></g><path fill="#ffffff" d="M 76.90625 115.390625 L 79.179688 105.078125 C 79.199219 104.988281 79.28125 104.941406 79.351562 104.941406 L 79.390625 104.945312 C 79.484375 104.96875 79.542969 105.0625 79.523438 105.15625 L 77.285156 115.265625 L 79.851562 115.957031 C 79.910156 115.96875 79.945312 116.007812 79.964844 116.035156 C 79.980469 116.0625 80 116.109375 79.984375 116.167969 C 79.964844 116.257812 79.882812 116.304688 79.816406 116.304688 L 79.800781 116.308594 L 77.042969 115.566406 C 76.953125 115.546875 76.902344 115.460938 76.90625 115.390625 Z M 80.949219 115.402344 C 80.925781 115.367188 80.898438 115.332031 80.871094 115.300781 C 80.679688 115.054688 80.417969 114.878906 80.128906 114.8125 L 79.019531 114.515625 L 78.671875 114.421875 L 78.683594 114.371094 L 79.097656 112.496094 L 79.351562 111.347656 L 79.367188 111.28125 L 79.632812 110.085938 L 80.664062 105.414062 C 80.824219 104.683594 80.367188 103.960938 79.644531 103.796875 C 78.933594 103.640625 78.191406 104.117188 78.035156 104.824219 L 76.925781 109.84375 L 76.671875 110.988281 L 76.035156 113.863281 L 75.769531 115.078125 C 75.746094 115.171875 75.734375 115.269531 75.738281 115.355469 C 75.726562 115.757812 75.894531 116.128906 76.164062 116.386719 C 76.332031 116.542969 76.535156 116.660156 76.765625 116.710938 L 78.335938 117.132812 L 79.480469 117.441406 L 79.519531 117.449219 C 79.617188 117.472656 79.714844 117.484375 79.8125 117.484375 L 79.816406 117.484375 C 80.359375 117.484375 80.847656 117.144531 81.054688 116.65625 C 81.085938 116.582031 81.109375 116.503906 81.128906 116.425781 C 81.207031 116.070312 81.144531 115.707031 80.949219 115.402344 " fill-opacity="1" fill-rule="nonzero"/><g clip-path="url(#id3)"><path fill="#ffffff" d="M 17.078125 110.085938 C 13.660156 109.703125 10.992188 106.785156 10.992188 103.25 C 10.992188 99.453125 14.0625 96.367188 17.835938 96.367188 C 21.609375 96.367188 24.679688 99.453125 24.679688 103.25 C 24.679688 106.363281 22.609375 108.996094 19.785156 109.84375 L 20.039062 110.988281 C 23.386719 110.023438 25.847656 106.921875 25.847656 103.25 C 25.847656 98.804688 22.253906 95.191406 17.835938 95.191406 C 13.417969 95.191406 9.824219 98.804688 9.824219 103.25 C 9.824219 107.523438 13.15625 111.023438 17.34375 111.28125 L 17.078125 110.085938 " fill-opacity="1" fill-rule="nonzero"/></g><path fill="#ffffff" d="M 20.976562 115.375 C 20.984375 115.761719 20.820312 116.128906 20.546875 116.382812 C 23.96875 122.960938 30.152344 127.125 37.480469 127.695312 C 37.550781 127.285156 37.683594 126.898438 37.871094 126.542969 C 30.113281 126.042969 23.675781 121.308594 20.671875 113.863281 L 20.941406 115.078125 C 20.964844 115.171875 20.976562 115.269531 20.976562 115.375 " fill-opacity="1" fill-rule="nonzero"/><path fill="#ffffff" d="M 37.832031 130.046875 C 29.300781 129.714844 22.101562 124.894531 18.378906 117.132812 L 17.230469 117.441406 C 21.253906 126.015625 29.285156 131.238281 38.769531 131.242188 C 38.382812 130.914062 38.0625 130.507812 37.832031 130.046875 " fill-opacity="1" fill-rule="nonzero"/><path fill="#ffffff" d="M 15.761719 115.402344 C 15.785156 115.367188 15.8125 115.332031 15.839844 115.300781 L 15.351562 115.507812 C 15.394531 115.898438 15.367188 116.285156 15.261719 116.648438 C 15.242188 116.71875 15.21875 116.785156 15.191406 116.851562 L 15.65625 116.65625 C 15.625 116.582031 15.601562 116.503906 15.582031 116.421875 C 15.503906 116.070312 15.566406 115.707031 15.761719 115.402344 " fill-opacity="1" fill-rule="nonzero"/><path fill="#ffffff" d="M 14.609375 113.753906 L 17.46875 112.542969 C 17.515625 112.519531 17.5625 112.507812 17.613281 112.496094 L 17.359375 111.347656 C 17.242188 111.375 17.128906 111.410156 17.015625 111.457031 L 13.539062 112.933594 C 13.941406 113.109375 14.308594 113.386719 14.609375 113.753906 " fill-opacity="1" fill-rule="nonzero"/><path fill="#ffffff" d="M 18.039062 114.421875 L 18.027344 114.371094 L 17.6875 114.515625 Z M 18.039062 114.421875 " fill-opacity="1" fill-rule="nonzero"/><path fill="#ffffff" d="M 13.542969 117.058594 L 3.1875 121.449219 C 3.074219 121.5 2.953125 121.523438 2.828125 121.523438 C 2.265625 121.523438 1.679688 121.058594 1.402344 120.390625 C 1.21875 119.957031 1.183594 119.496094 1.296875 119.097656 C 1.398438 118.742188 1.609375 118.480469 1.890625 118.363281 L 12.246094 113.972656 C 12.359375 113.921875 12.480469 113.898438 12.605469 113.898438 C 13.167969 113.898438 13.753906 114.367188 14.035156 115.03125 C 14.214844 115.464844 14.25 115.921875 14.136719 116.324219 C 14.035156 116.679688 13.824219 116.9375 13.542969 117.058594 Z M 15.351562 115.507812 C 15.316406 115.191406 15.238281 114.878906 15.109375 114.574219 C 14.980469 114.269531 14.808594 113.996094 14.609375 113.753906 C 14.308594 113.386719 13.941406 113.109375 13.539062 112.933594 C 13.238281 112.800781 12.925781 112.722656 12.605469 112.722656 C 12.324219 112.722656 12.046875 112.777344 11.789062 112.886719 L 1.4375 117.277344 C 0.824219 117.539062 0.375 118.066406 0.171875 118.769531 C -0.015625 119.429688 0.0390625 120.164062 0.320312 120.84375 C 0.785156 121.953125 1.792969 122.699219 2.824219 122.699219 L 2.828125 122.699219 C 3.109375 122.699219 3.382812 122.644531 3.644531 122.535156 L 13.996094 118.144531 C 14.550781 117.910156 14.96875 117.453125 15.191406 116.851562 C 15.21875 116.785156 15.242188 116.71875 15.261719 116.648438 C 15.367188 116.285156 15.394531 115.898438 15.351562 115.507812 " fill-opacity="1" fill-rule="nonzero"/><path fill="#ffffff" d="M 16.894531 116.304688 C 16.824219 116.304688 16.746094 116.257812 16.726562 116.167969 C 16.710938 116.109375 16.730469 116.0625 16.746094 116.035156 C 16.765625 116.007812 16.800781 115.96875 16.882812 115.953125 L 19.425781 115.265625 L 17.1875 105.15625 C 17.167969 105.0625 17.226562 104.96875 17.320312 104.945312 L 17.359375 104.941406 C 17.429688 104.941406 17.511719 104.988281 17.53125 105.082031 L 19.800781 115.332031 L 19.804688 115.390625 C 19.804688 115.460938 19.757812 115.546875 19.644531 115.574219 L 16.933594 116.300781 Z M 18.378906 117.132812 L 19.921875 116.714844 C 20.160156 116.660156 20.375 116.542969 20.546875 116.382812 C 20.820312 116.128906 20.984375 115.761719 20.976562 115.375 C 20.976562 115.269531 20.964844 115.171875 20.941406 115.078125 L 20.671875 113.863281 L 20.039062 110.988281 L 19.785156 109.84375 L 18.675781 104.824219 C 18.519531 104.113281 17.785156 103.636719 17.066406 103.796875 C 16.34375 103.960938 15.886719 104.683594 16.046875 105.414062 L 17.078125 110.085938 L 17.34375 111.28125 L 17.359375 111.347656 L 17.613281 112.496094 L 18.027344 114.371094 L 18.039062 114.421875 L 17.6875 114.515625 L 16.605469 114.808594 C 16.296875 114.878906 16.03125 115.050781 15.839844 115.300781 C 15.8125 115.332031 15.785156 115.367188 15.761719 115.402344 C 15.566406 115.707031 15.503906 116.070312 15.582031 116.421875 C 15.601562 116.503906 15.625 116.582031 15.65625 116.65625 C 15.863281 117.144531 16.351562 117.484375 16.894531 117.484375 C 16.996094 117.484375 17.09375 117.472656 17.214844 117.445312 L 17.230469 117.441406 L 18.378906 117.132812 " fill-opacity="1" fill-rule="nonzero"/><path fill="#ffffff" d="M 58.878906 130.046875 C 59.136719 129.53125 59.289062 128.953125 59.289062 128.335938 C 59.289062 128.117188 59.265625 127.90625 59.230469 127.695312 C 59.160156 127.285156 59.027344 126.898438 58.839844 126.542969 C 58.203125 125.34375 56.941406 124.527344 55.5 124.527344 L 41.210938 124.527344 C 39.769531 124.527344 38.511719 125.34375 37.871094 126.542969 C 37.683594 126.898438 37.550781 127.285156 37.480469 127.695312 C 37.445312 127.90625 37.421875 128.117188 37.421875 128.335938 C 37.421875 128.953125 37.574219 129.53125 37.832031 130.046875 C 38.0625 130.507812 38.382812 130.914062 38.769531 131.242188 C 38.917969 131.371094 39.078125 131.484375 39.246094 131.585938 C 39.582031 131.308594 39.925781 131.046875 40.285156 130.796875 C 39.296875 130.417969 38.59375 129.460938 38.59375 128.335938 C 38.59375 126.882812 39.769531 125.703125 41.210938 125.703125 L 55.5 125.703125 C 56.941406 125.703125 58.117188 126.882812 58.117188 128.335938 C 58.117188 129.460938 57.410156 130.421875 56.425781 130.796875 C 56.785156 131.046875 57.132812 131.308594 57.464844 131.585938 C 57.632812 131.484375 57.792969 131.371094 57.941406 131.242188 C 58.328125 130.914062 58.648438 130.507812 58.878906 130.046875 " fill-opacity="1" fill-rule="nonzero"/><path fill="#ffffff" d="M 39.375 162.5625 C 39.253906 162.5625 39.136719 162.550781 39.015625 162.542969 L 39.015625 163.71875 C 39.136719 163.726562 39.253906 163.738281 39.375 163.738281 L 57.335938 163.738281 C 57.457031 163.738281 57.574219 163.726562 57.695312 163.71875 L 57.695312 162.542969 C 57.574219 162.550781 57.457031 162.5625 57.335938 162.5625 L 39.375 162.5625 " fill-opacity="1" fill-rule="nonzero"/><path fill="#ffffff" d="M 32.429688 207.960938 C 32.300781 207.839844 32.222656 207.664062 32.222656 207.476562 C 32.222656 207.285156 32.300781 207.113281 32.429688 206.992188 L 32.429688 205.695312 C 31.640625 205.902344 31.050781 206.617188 31.050781 207.476562 C 31.050781 208.332031 31.640625 209.050781 32.429688 209.257812 L 32.429688 207.960938 " fill-opacity="1" fill-rule="nonzero"/><path fill="#ffffff" d="M 64.28125 206.992188 C 64.410156 207.113281 64.488281 207.285156 64.488281 207.476562 C 64.488281 207.664062 64.410156 207.839844 64.28125 207.960938 L 64.28125 209.257812 C 65.070312 209.050781 65.660156 208.332031 65.660156 207.476562 C 65.660156 206.617188 65.070312 205.902344 64.28125 205.695312 L 64.28125 206.992188 " fill-opacity="1" fill-rule="nonzero"/><path fill="#ffffff" d="M 60.078125 169.824219 L 60.078125 164.566406 C 59.992188 164.617188 59.910156 164.664062 59.828125 164.710938 C 59.480469 164.90625 59.191406 165.070312 58.90625 165.136719 L 58.90625 168.453125 C 59.355469 168.859375 59.75 169.316406 60.078125 169.824219 " fill-opacity="1" fill-rule="nonzero"/><path fill="#ffffff" d="M 63.472656 164.710938 C 63.359375 164.644531 63.238281 164.574219 63.113281 164.507812 L 63.113281 196.542969 C 63.148438 196.578125 63.191406 196.613281 63.226562 196.648438 C 63.757812 197.210938 63.980469 197.980469 63.851562 198.808594 C 63.761719 199.394531 63.503906 199.964844 63.113281 200.472656 L 63.113281 209.488281 C 63.113281 209.933594 62.492188 210.425781 61.601562 210.429688 L 61.601562 211.605469 C 63.105469 211.605469 64.28125 210.675781 64.28125 209.488281 L 64.28125 165.101562 C 64.03125 165.023438 63.773438 164.878906 63.472656 164.710938 " fill-opacity="1" fill-rule="nonzero"/><path fill="#ffffff" d="M 37.792969 203.035156 C 37.402344 202.875 37.015625 202.707031 36.632812 202.527344 L 36.632812 209.488281 C 36.632812 209.933594 36.011719 210.429688 35.117188 210.429688 C 34.222656 210.429688 33.601562 209.933594 33.601562 209.488281 L 33.601562 200.472656 C 33.207031 199.964844 32.949219 199.394531 32.859375 198.808594 C 32.730469 197.980469 32.953125 197.210938 33.488281 196.648438 C 33.523438 196.609375 33.5625 196.578125 33.601562 196.542969 L 33.601562 164.507812 C 33.472656 164.574219 33.351562 164.644531 33.238281 164.710938 C 32.9375 164.878906 32.679688 165.023438 32.429688 165.101562 L 32.429688 209.488281 C 32.429688 210.675781 33.609375 211.605469 35.117188 211.605469 C 36.542969 211.605469 37.679688 210.769531 37.792969 209.667969 L 37.792969 203.035156 " fill-opacity="1" fill-rule="nonzero"/><path fill="#ffffff" d="M 37.800781 168.453125 L 37.800781 165.136719 C 37.519531 165.070312 37.230469 164.90625 36.882812 164.710938 C 36.804688 164.664062 36.71875 164.617188 36.632812 164.566406 L 36.632812 169.824219 C 36.960938 169.316406 37.359375 168.859375 37.800781 168.453125 " fill-opacity="1" fill-rule="nonzero"/><path fill="#ffffff" d="M 61.601562 210.429688 L 61.601562 201.753906 L 61.5625 201.773438 C 61.191406 201.980469 60.8125 202.171875 60.429688 202.355469 L 60.429688 214.785156 C 60.429688 215.796875 59.800781 216.660156 58.917969 217.011719 L 58.917969 218.242188 C 60.457031 217.851562 61.601562 216.449219 61.601562 214.785156 L 61.601562 210.429688 " fill-opacity="1" fill-rule="nonzero"/><g clip-path="url(#id4)"><path fill="#ffffff" d="M 58.917969 217.011719 L 58.917969 203.035156 C 58.535156 203.195312 58.144531 203.34375 57.75 203.488281 L 57.75 234.3125 C 57.75 237.082031 55.507812 239.335938 52.753906 239.335938 L 43.957031 239.335938 C 41.203125 239.335938 38.960938 237.082031 38.960938 234.3125 L 38.960938 203.488281 C 38.566406 203.34375 38.179688 203.195312 37.792969 203.035156 L 37.792969 234.3125 C 37.792969 237.730469 40.558594 240.511719 43.957031 240.511719 L 52.753906 240.511719 C 56.152344 240.511719 58.917969 237.730469 58.917969 234.3125 L 58.917969 217.011719 " fill-opacity="1" fill-rule="nonzero"/></g><path fill="#ffffff" d="M 36.632812 169.824219 C 35.921875 170.917969 35.503906 172.226562 35.503906 173.628906 L 35.503906 194.648438 C 35.503906 194.984375 35.527344 195.308594 35.558594 195.628906 C 35.765625 195.601562 35.976562 195.582031 36.195312 195.582031 C 36.375 195.582031 36.554688 195.59375 36.738281 195.617188 C 36.695312 195.304688 36.675781 194.980469 36.675781 194.648438 L 36.675781 173.628906 C 36.675781 170.425781 39.265625 167.820312 42.449219 167.820312 L 54.261719 167.820312 C 57.445312 167.820312 60.039062 170.425781 60.039062 173.628906 L 60.039062 194.648438 C 60.039062 194.976562 60.019531 195.300781 59.980469 195.617188 C 60.160156 195.59375 60.339844 195.582031 60.515625 195.582031 C 60.734375 195.582031 60.949219 195.601562 61.15625 195.628906 C 61.1875 195.308594 61.207031 194.980469 61.207031 194.648438 L 61.207031 173.628906 C 61.207031 172.226562 60.789062 170.917969 60.078125 169.824219 C 59.75 169.316406 59.355469 168.859375 58.90625 168.453125 C 57.675781 167.332031 56.046875 166.644531 54.261719 166.644531 L 42.449219 166.644531 C 40.660156 166.644531 39.035156 167.332031 37.800781 168.453125 C 37.359375 168.859375 36.960938 169.316406 36.632812 169.824219 " fill-opacity="1" fill-rule="nonzero"/><path fill="#ffffff" d="M 60.515625 195.582031 C 60.339844 195.582031 60.160156 195.59375 59.980469 195.617188 C 59.339844 195.6875 58.695312 195.882812 58.125 196.191406 C 55.839844 197.441406 53.300781 198.230469 50.675781 198.523438 L 49.59375 199.796875 C 52.796875 199.617188 55.917969 198.738281 58.679688 197.226562 C 59.242188 196.921875 59.894531 196.757812 60.515625 196.757812 C 61.289062 196.757812 61.949219 197.007812 62.378906 197.460938 C 62.734375 197.835938 62.75 198.300781 62.699219 198.628906 C 62.570312 199.441406 61.9375 200.230469 61.003906 200.742188 C 57.183594 202.832031 52.808594 203.9375 48.355469 203.9375 C 43.902344 203.9375 39.527344 202.832031 35.707031 200.742188 C 34.773438 200.230469 34.140625 199.441406 34.015625 198.628906 C 33.960938 198.300781 33.976562 197.835938 34.335938 197.460938 C 34.761719 197.007812 35.421875 196.757812 36.195312 196.757812 C 36.816406 196.757812 37.46875 196.921875 38.027344 197.226562 C 40.796875 198.738281 43.914062 199.617188 47.121094 199.796875 L 46.035156 198.523438 C 43.410156 198.230469 40.867188 197.441406 38.585938 196.191406 C 38.015625 195.882812 37.375 195.6875 36.738281 195.617188 C 36.554688 195.59375 36.375 195.582031 36.195312 195.582031 C 35.976562 195.582031 35.765625 195.601562 35.558594 195.628906 C 34.789062 195.738281 34.109375 196.054688 33.601562 196.542969 C 33.5625 196.578125 33.523438 196.609375 33.488281 196.648438 C 32.953125 197.210938 32.730469 197.980469 32.859375 198.808594 C 32.949219 199.394531 33.207031 199.964844 33.601562 200.472656 C 33.992188 200.984375 34.519531 201.433594 35.148438 201.773438 C 35.632812 202.042969 36.128906 202.292969 36.632812 202.527344 C 37.015625 202.707031 37.402344 202.875 37.792969 203.035156 C 38.179688 203.195312 38.566406 203.34375 38.960938 203.488281 C 41.945312 204.558594 45.128906 205.113281 48.355469 205.113281 C 51.582031 205.113281 54.765625 204.558594 57.75 203.488281 C 58.144531 203.34375 58.535156 203.195312 58.917969 203.035156 C 59.429688 202.824219 59.933594 202.597656 60.429688 202.355469 C 60.8125 202.171875 61.191406 201.980469 61.5625 201.773438 L 61.601562 201.753906 C 62.210938 201.414062 62.726562 200.972656 63.113281 200.472656 C 63.503906 199.964844 63.761719 199.394531 63.851562 198.808594 C 63.980469 197.980469 63.757812 197.210938 63.226562 196.648438 C 63.191406 196.613281 63.148438 196.578125 63.113281 196.542969 C 62.601562 196.054688 61.925781 195.742188 61.15625 195.628906 C 60.949219 195.601562 60.734375 195.582031 60.515625 195.582031 " fill-opacity="1" fill-rule="nonzero"/><path fill="#ffffff" d="M 52.140625 194.996094 L 48.355469 199.441406 L 44.570312 194.996094 L 44.570312 190.476562 L 48.355469 188.277344 L 52.140625 190.476562 Z M 53.3125 189.796875 L 48.355469 186.921875 L 43.402344 189.796875 L 43.402344 195.429688 L 46.035156 198.523438 L 47.121094 199.796875 L 48.355469 201.25 L 49.59375 199.796875 L 50.675781 198.523438 L 53.3125 195.429688 L 53.3125 189.796875 " fill-opacity="1" fill-rule="nonzero"/><path fill="#ffffff" d="M 33.238281 164.710938 C 33.351562 164.644531 33.472656 164.574219 33.601562 164.507812 C 34.046875 164.269531 34.554688 164.039062 35.0625 164.039062 C 35.609375 164.039062 36.15625 164.304688 36.632812 164.566406 C 36.71875 164.617188 36.804688 164.664062 36.882812 164.710938 C 37.230469 164.90625 37.519531 165.070312 37.800781 165.136719 C 37.894531 165.160156 37.984375 165.171875 38.074219 165.171875 C 38.425781 165.171875 39.015625 165 39.015625 163.84375 L 39.015625 153.453125 C 38.605469 153.09375 38.214844 152.71875 37.847656 152.3125 L 37.847656 163.84375 L 37.84375 163.898438 C 37.722656 163.835938 37.578125 163.753906 37.457031 163.683594 C 36.847656 163.339844 36.015625 162.863281 35.0625 162.863281 C 34.109375 162.863281 33.273438 163.339844 32.664062 163.683594 C 32.542969 163.753906 32.398438 163.835938 32.277344 163.898438 L 32.277344 156.589844 C 31.914062 156.851562 31.523438 157.078125 31.105469 157.253906 L 31.105469 163.84375 C 31.105469 164.214844 31.15625 164.484375 31.265625 164.695312 C 31.425781 165 31.710938 165.171875 32.050781 165.171875 C 32.175781 165.171875 32.300781 165.140625 32.429688 165.101562 C 32.679688 165.023438 32.9375 164.878906 33.238281 164.710938 " fill-opacity="1" fill-rule="nonzero"/><path fill="#ffffff" d="M 32.277344 146.847656 L 32.277344 135.847656 C 32.277344 134.304688 33.523438 133.050781 35.0625 133.050781 C 35.835938 133.050781 36.542969 133.371094 37.046875 133.886719 C 37.285156 133.574219 37.53125 133.273438 37.796875 132.984375 C 37.082031 132.296875 36.121094 131.871094 35.0625 131.871094 C 32.882812 131.871094 31.105469 133.65625 31.105469 135.847656 L 31.105469 146.179688 C 31.523438 146.355469 31.914062 146.582031 32.277344 146.847656 " fill-opacity="1" fill-rule="nonzero"/><path fill="#ffffff" d="M 59.664062 133.886719 C 60.171875 133.371094 60.871094 133.050781 61.648438 133.050781 C 63.183594 133.050781 64.433594 134.304688 64.433594 135.847656 L 64.433594 146.847656 C 64.796875 146.582031 65.1875 146.355469 65.605469 146.179688 L 65.605469 135.847656 C 65.605469 133.65625 63.828125 131.871094 61.648438 131.871094 C 60.589844 131.871094 59.628906 132.296875 58.914062 132.984375 C 59.175781 133.273438 59.425781 133.574219 59.664062 133.886719 " fill-opacity="1" fill-rule="nonzero"/><path fill="#ffffff" d="M 64.433594 156.589844 L 64.433594 163.898438 C 64.3125 163.835938 64.167969 163.753906 64.046875 163.683594 C 63.4375 163.339844 62.601562 162.863281 61.648438 162.863281 C 60.699219 162.863281 59.863281 163.339844 59.253906 163.683594 C 59.132812 163.753906 58.988281 163.835938 58.867188 163.898438 L 58.867188 152.3125 C 58.496094 152.71875 58.105469 153.09375 57.695312 153.453125 L 57.695312 163.84375 C 57.695312 164.214844 57.746094 164.484375 57.855469 164.695312 C 58.015625 165 58.300781 165.171875 58.636719 165.171875 C 58.726562 165.171875 58.816406 165.160156 58.90625 165.136719 C 59.191406 165.070312 59.480469 164.90625 59.828125 164.710938 C 59.910156 164.664062 59.992188 164.617188 60.078125 164.566406 C 60.554688 164.304688 61.101562 164.039062 61.648438 164.039062 C 62.152344 164.039062 62.664062 164.269531 63.113281 164.507812 C 63.238281 164.574219 63.359375 164.644531 63.472656 164.710938 C 63.773438 164.878906 64.03125 165.023438 64.28125 165.101562 C 64.410156 165.140625 64.535156 165.171875 64.660156 165.171875 C 65.011719 165.171875 65.605469 165 65.605469 163.84375 L 65.605469 157.253906 C 65.1875 157.078125 64.796875 156.851562 64.433594 156.589844 " fill-opacity="1" fill-rule="nonzero"/><path fill="#ffffff" d="M 61.453125 142.621094 C 61.453125 149.882812 55.578125 155.792969 48.355469 155.792969 C 41.132812 155.792969 35.257812 149.882812 35.257812 142.621094 C 35.257812 135.359375 41.132812 129.449219 48.355469 129.449219 C 55.578125 129.449219 61.453125 135.359375 61.453125 142.621094 Z M 56.425781 130.796875 C 54.128906 129.207031 51.347656 128.273438 48.355469 128.273438 C 45.363281 128.273438 42.582031 129.207031 40.285156 130.796875 C 39.925781 131.046875 39.582031 131.308594 39.246094 131.585938 C 38.730469 132.019531 38.246094 132.484375 37.796875 132.984375 C 37.53125 133.273438 37.285156 133.574219 37.046875 133.886719 C 35.191406 136.308594 34.085938 139.335938 34.085938 142.621094 C 34.085938 146.355469 35.515625 149.757812 37.847656 152.3125 C 38.214844 152.71875 38.605469 153.09375 39.015625 153.453125 C 41.519531 155.640625 44.785156 156.96875 48.355469 156.96875 C 51.925781 156.96875 55.191406 155.640625 57.695312 153.453125 C 58.105469 153.09375 58.496094 152.71875 58.867188 152.3125 C 61.195312 149.757812 62.625 146.355469 62.625 142.621094 C 62.625 139.335938 61.515625 136.308594 59.664062 133.886719 C 59.425781 133.574219 59.175781 133.273438 58.914062 132.984375 C 58.464844 132.484375 57.980469 132.019531 57.464844 131.585938 C 57.132812 131.308594 56.785156 131.046875 56.425781 130.796875 " fill-opacity="1" fill-rule="nonzero"/><path fill="#ffffff" d="M 48.355469 153.097656 C 42.613281 153.097656 37.941406 148.398438 37.941406 142.621094 C 37.941406 136.84375 42.613281 132.148438 48.355469 132.148438 C 54.097656 132.148438 58.773438 136.84375 58.773438 142.621094 C 58.773438 148.398438 54.097656 153.097656 48.355469 153.097656 Z M 48.355469 130.96875 C 41.96875 130.96875 36.769531 136.195312 36.769531 142.621094 C 36.769531 149.046875 41.96875 154.273438 48.355469 154.273438 C 54.746094 154.273438 59.941406 149.046875 59.941406 142.621094 C 59.941406 136.195312 54.746094 130.96875 48.355469 130.96875 " fill-opacity="1" fill-rule="nonzero"/><path fill="#ffffff" d="M 28.796875 146.890625 C 31.445312 146.890625 33.597656 149.054688 33.597656 151.71875 C 33.597656 154.378906 31.445312 156.546875 28.796875 156.546875 C 26.152344 156.546875 23.996094 154.378906 23.996094 151.71875 C 23.996094 149.054688 26.152344 146.890625 28.796875 146.890625 Z M 32.277344 156.589844 C 33.78125 155.496094 34.769531 153.722656 34.769531 151.71875 C 34.769531 149.714844 33.78125 147.9375 32.277344 146.847656 C 31.914062 146.582031 31.523438 146.355469 31.105469 146.179688 C 30.394531 145.878906 29.617188 145.714844 28.796875 145.714844 C 25.507812 145.714844 22.828125 148.40625 22.828125 151.71875 C 22.828125 155.027344 25.507812 157.722656 28.796875 157.722656 C 29.617188 157.722656 30.394531 157.554688 31.105469 157.253906 C 31.523438 157.078125 31.914062 156.851562 32.277344 156.589844 " fill-opacity="1" fill-rule="nonzero"/><path fill="#ffffff" d="M 67.914062 156.546875 C 65.265625 156.546875 63.113281 154.378906 63.113281 151.71875 C 63.113281 149.054688 65.265625 146.890625 67.914062 146.890625 C 70.558594 146.890625 72.714844 149.054688 72.714844 151.71875 C 72.714844 154.378906 70.558594 156.546875 67.914062 156.546875 Z M 64.433594 146.847656 C 62.929688 147.9375 61.941406 149.710938 61.941406 151.71875 C 61.941406 153.722656 62.929688 155.496094 64.433594 156.589844 C 64.796875 156.851562 65.1875 157.078125 65.605469 157.253906 C 66.3125 157.554688 67.09375 157.722656 67.914062 157.722656 C 71.207031 157.722656 73.882812 155.027344 73.882812 151.71875 C 73.882812 148.40625 71.207031 145.714844 67.914062 145.714844 C 67.09375 145.714844 66.3125 145.878906 65.605469 146.179688 C 65.1875 146.355469 64.796875 146.582031 64.433594 146.847656 " fill-opacity="1" fill-rule="nonzero"/><g fill="#ffffff" fill-opacity="1"><g transform="translate(110.283996, 195.076276)"><g><path d="M 5.765625 -15.578125 L 11.578125 -15.578125 L 11.578125 -11.734375 L 5.765625 -11.734375 L 5.765625 -3.84375 L 13.078125 -3.84375 L 13.078125 0 L 1.53125 0 L 1.53125 -26.921875 L 13.078125 -26.921875 L 13.078125 -23.078125 L 5.765625 -23.078125 Z M 5.765625 -15.578125 "/></g></g></g><g fill="#ffffff" fill-opacity="1"><g transform="translate(137.778482, 195.076276)"><g><path d="M 5.3125 -19.5 L 5.3125 0 L 1.5 0 L 1.5 -26.921875 L 6.8125 -26.921875 L 11.15625 -10.8125 L 11.15625 -26.921875 L 14.921875 -26.921875 L 14.921875 0 L 10.578125 0 Z M 5.3125 -19.5 "/></g></g></g><g fill="#ffffff" fill-opacity="1"><g transform="translate(167.541472, 195.076276)"><g><path d="M 0.3125 -26.921875 L 13.375 -26.921875 L 13.375 -23.078125 L 8.953125 -23.078125 L 8.953125 0 L 4.734375 0 L 4.734375 -23.078125 L 0.3125 -23.078125 Z M 0.3125 -26.921875 "/></g></g></g><g fill="#ffffff" fill-opacity="1"><g transform="translate(194.574566, 195.076276)"><g><path d="M 10.375 0 C 10.332031 -0.175781 10.285156 -0.34375 10.234375 -0.5 C 10.179688 -0.65625 10.132812 -0.847656 10.09375 -1.078125 C 10.050781 -1.304688 10.023438 -1.597656 10.015625 -1.953125 C 10.003906 -2.316406 10 -2.769531 10 -3.3125 L 10 -7.53125 C 10 -8.789062 9.78125 -9.675781 9.34375 -10.1875 C 8.90625 -10.695312 8.203125 -10.953125 7.234375 -10.953125 L 5.765625 -10.953125 L 5.765625 0 L 1.53125 0 L 1.53125 -26.921875 L 7.921875 -26.921875 C 10.128906 -26.921875 11.722656 -26.40625 12.703125 -25.375 C 13.691406 -24.351562 14.1875 -22.800781 14.1875 -20.71875 L 14.1875 -18.609375 C 14.1875 -15.835938 13.265625 -14.019531 11.421875 -13.15625 C 12.492188 -12.71875 13.226562 -12.003906 13.625 -11.015625 C 14.03125 -10.023438 14.234375 -8.828125 14.234375 -7.421875 L 14.234375 -3.265625 C 14.234375 -2.597656 14.253906 -2.015625 14.296875 -1.515625 C 14.347656 -1.015625 14.476562 -0.507812 14.6875 0 Z M 5.765625 -23.078125 L 5.765625 -14.796875 L 7.421875 -14.796875 C 8.210938 -14.796875 8.832031 -15 9.28125 -15.40625 C 9.726562 -15.820312 9.953125 -16.570312 9.953125 -17.65625 L 9.953125 -20.296875 C 9.953125 -21.273438 9.78125 -21.984375 9.4375 -22.421875 C 9.09375 -22.859375 8.550781 -23.078125 7.8125 -23.078125 Z M 5.765625 -23.078125 "/></g></g></g><g fill="#ffffff" fill-opacity="1"><g transform="translate(223.376334, 195.076276)"><g><path d="M 5.765625 -15.578125 L 11.578125 -15.578125 L 11.578125 -11.734375 L 5.765625 -11.734375 L 5.765625 -3.84375 L 13.078125 -3.84375 L 13.078125 0 L 1.53125 0 L 1.53125 -26.921875 L 13.078125 -26.921875 L 13.078125 -23.078125 L 5.765625 -23.078125 Z M 5.765625 -15.578125 "/></g></g></g><g fill="#ffffff" fill-opacity="1"><g transform="translate(250.87082, 195.076276)"><g><path d="M 7.890625 -15 L 13.796875 -15 L 13.796875 -6.453125 C 13.796875 -4.273438 13.265625 -2.601562 12.203125 -1.4375 C 11.140625 -0.269531 9.570312 0.3125 7.5 0.3125 C 5.425781 0.3125 3.851562 -0.269531 2.78125 -1.4375 C 1.71875 -2.601562 1.1875 -4.273438 1.1875 -6.453125 L 1.1875 -20.453125 C 1.1875 -22.628906 1.71875 -24.300781 2.78125 -25.46875 C 3.851562 -26.632812 5.425781 -27.21875 7.5 -27.21875 C 9.570312 -27.21875 11.140625 -26.632812 12.203125 -25.46875 C 13.265625 -24.300781 13.796875 -22.628906 13.796875 -20.453125 L 13.796875 -17.84375 L 9.8125 -17.84375 L 9.8125 -20.71875 C 9.8125 -21.695312 9.609375 -22.382812 9.203125 -22.78125 C 8.804688 -23.175781 8.273438 -23.375 7.609375 -23.375 C 6.941406 -23.375 6.410156 -23.175781 6.015625 -22.78125 C 5.617188 -22.382812 5.421875 -21.695312 5.421875 -20.71875 L 5.421875 -6.1875 C 5.421875 -5.21875 5.617188 -4.539062 6.015625 -4.15625 C 6.410156 -3.769531 6.941406 -3.578125 7.609375 -3.578125 C 8.273438 -3.578125 8.804688 -3.769531 9.203125 -4.15625 C 9.609375 -4.539062 9.8125 -5.21875 9.8125 -6.1875 L 9.8125 -11.15625 L 7.890625 -11.15625 Z M 7.890625 -15 "/></g></g></g><g fill="#ffffff" fill-opacity="1"><g transform="translate(279.211195, 195.076276)"><g><path d="M 15.234375 0 L 10.953125 0 L 10.234375 -4.890625 L 5.03125 -4.890625 L 4.3125 0 L 0.421875 0 L 4.734375 -26.921875 L 10.921875 -26.921875 Z M 5.578125 -8.53125 L 9.65625 -8.53125 L 7.609375 -22.15625 Z M 5.578125 -8.53125 "/></g></g></g><g fill="#ffffff" fill-opacity="1"><g transform="translate(308.2052, 195.076276)"><g><path d="M 1 -20.453125 C 1 -22.628906 1.515625 -24.300781 2.546875 -25.46875 C 3.585938 -26.632812 5.148438 -27.21875 7.234375 -27.21875 C 9.304688 -27.21875 10.859375 -26.632812 11.890625 -25.46875 C 12.929688 -24.300781 13.453125 -22.628906 13.453125 -20.453125 L 13.453125 -19.609375 L 9.453125 -19.609375 L 9.453125 -20.71875 C 9.453125 -21.695312 9.265625 -22.382812 8.890625 -22.78125 C 8.523438 -23.175781 8.007812 -23.375 7.34375 -23.375 C 6.675781 -23.375 6.15625 -23.175781 5.78125 -22.78125 C 5.414062 -22.382812 5.234375 -21.695312 5.234375 -20.71875 C 5.234375 -19.800781 5.4375 -18.988281 5.84375 -18.28125 C 6.25 -17.582031 6.757812 -16.914062 7.375 -16.28125 C 8 -15.65625 8.660156 -15.023438 9.359375 -14.390625 C 10.066406 -13.765625 10.726562 -13.082031 11.34375 -12.34375 C 11.957031 -11.601562 12.46875 -10.753906 12.875 -9.796875 C 13.289062 -8.847656 13.5 -7.734375 13.5 -6.453125 C 13.5 -4.273438 12.96875 -2.601562 11.90625 -1.4375 C 10.84375 -0.269531 9.269531 0.3125 7.1875 0.3125 C 5.113281 0.3125 3.546875 -0.269531 2.484375 -1.4375 C 1.421875 -2.601562 0.890625 -4.273438 0.890625 -6.453125 L 0.890625 -8.109375 L 4.890625 -8.109375 L 4.890625 -6.1875 C 4.890625 -5.21875 5.085938 -4.539062 5.484375 -4.15625 C 5.878906 -3.769531 6.410156 -3.578125 7.078125 -3.578125 C 7.742188 -3.578125 8.273438 -3.769531 8.671875 -4.15625 C 9.066406 -4.539062 9.265625 -5.21875 9.265625 -6.1875 C 9.265625 -7.113281 9.054688 -7.925781 8.640625 -8.625 C 8.234375 -9.332031 7.722656 -10 7.109375 -10.625 C 6.492188 -11.257812 5.832031 -11.890625 5.125 -12.515625 C 4.425781 -13.140625 3.769531 -13.820312 3.15625 -14.5625 C 2.539062 -15.3125 2.023438 -16.160156 1.609375 -17.109375 C 1.203125 -18.054688 1 -19.171875 1 -20.453125 Z M 1 -20.453125 "/></g></g></g><g fill="#ffffff" fill-opacity="1"><g transform="translate(110.283996, 154.354948)"><g><path d="M 11.65625 -30.21875 L 22.6875 -30.21875 L 22.6875 -22.453125 L 11.65625 -22.453125 L 11.65625 0 L 3.109375 0 L 3.109375 -54.375 L 25.71875 -54.375 L 25.71875 -46.609375 L 11.65625 -46.609375 Z M 11.65625 -30.21875 "/></g></g></g><g fill="#ffffff" fill-opacity="1"><g transform="translate(146.951201, 154.354948)"><g><path d="M 30.765625 0 L 22.140625 0 L 20.671875 -9.859375 L 10.171875 -9.859375 L 8.703125 0 L 0.859375 0 L 9.5625 -54.375 L 22.0625 -54.375 Z M 11.265625 -17.25 L 19.5 -17.25 L 15.375 -44.75 Z M 11.265625 -17.25 "/></g></g></g><g fill="#ffffff" fill-opacity="1"><g transform="translate(188.512471, 154.354948)"><g><path d="M 2.015625 -41.328125 C 2.015625 -45.734375 3.0625 -49.113281 5.15625 -51.46875 C 7.257812 -53.820312 10.410156 -55 14.609375 -55 C 18.796875 -55 21.9375 -53.820312 24.03125 -51.46875 C 26.132812 -49.113281 27.1875 -45.734375 27.1875 -41.328125 L 27.1875 -39.625 L 19.109375 -39.625 L 19.109375 -41.875 C 19.109375 -43.84375 18.734375 -45.226562 17.984375 -46.03125 C 17.234375 -46.832031 16.1875 -47.234375 14.84375 -47.234375 C 13.488281 -47.234375 12.4375 -46.832031 11.6875 -46.03125 C 10.9375 -45.226562 10.5625 -43.84375 10.5625 -41.875 C 10.5625 -40.007812 10.972656 -38.363281 11.796875 -36.9375 C 12.628906 -35.507812 13.664062 -34.160156 14.90625 -32.890625 C 16.15625 -31.628906 17.488281 -30.363281 18.90625 -29.09375 C 20.332031 -27.820312 21.664062 -26.4375 22.90625 -24.9375 C 24.15625 -23.4375 25.191406 -21.726562 26.015625 -19.8125 C 26.847656 -17.894531 27.265625 -15.640625 27.265625 -13.046875 C 27.265625 -8.648438 26.1875 -5.269531 24.03125 -2.90625 C 21.882812 -0.550781 18.71875 0.625 14.53125 0.625 C 10.332031 0.625 7.15625 -0.550781 5 -2.90625 C 2.851562 -5.269531 1.78125 -8.648438 1.78125 -13.046875 L 1.78125 -16.390625 L 9.859375 -16.390625 L 9.859375 -12.5 C 9.859375 -10.539062 10.257812 -9.171875 11.0625 -8.390625 C 11.875 -7.609375 12.953125 -7.21875 14.296875 -7.21875 C 15.640625 -7.21875 16.710938 -7.609375 17.515625 -8.390625 C 18.316406 -9.171875 18.71875 -10.539062 18.71875 -12.5 C 18.71875 -14.363281 18.300781 -16.007812 17.46875 -17.4375 C 16.644531 -18.863281 15.609375 -20.210938 14.359375 -21.484375 C 13.117188 -22.753906 11.785156 -24.019531 10.359375 -25.28125 C 8.941406 -26.550781 7.609375 -27.9375 6.359375 -29.4375 C 5.117188 -30.945312 4.082031 -32.660156 3.25 -34.578125 C 2.425781 -36.492188 2.015625 -38.742188 2.015625 -41.328125 Z M 2.015625 -41.328125 "/></g></g></g><g fill="#ffffff" fill-opacity="1"><g transform="translate(227.510192, 154.354948)"><g><path d="M 0.625 -54.375 L 27.03125 -54.375 L 27.03125 -46.609375 L 18.09375 -46.609375 L 18.09375 0 L 9.5625 0 L 9.5625 -46.609375 L 0.625 -46.609375 Z M 0.625 -54.375 "/></g></g></g><g fill="#ffffff" fill-opacity="1"><g transform="translate(133.923145, 228.530551)"><g><path d="M 11.453125 -9.8125 L 11.453125 0 L 10.296875 0 L 10.296875 -7.203125 C 10.296875 -7.296875 10.296875 -7.394531 10.296875 -7.5 C 10.304688 -7.613281 10.316406 -7.726562 10.328125 -7.84375 L 6.953125 -1.71875 C 6.847656 -1.507812 6.691406 -1.40625 6.484375 -1.40625 L 6.296875 -1.40625 C 6.078125 -1.40625 5.914062 -1.507812 5.8125 -1.71875 L 2.375 -7.875 C 2.40625 -7.632812 2.421875 -7.410156 2.421875 -7.203125 L 2.421875 0 L 1.25 0 L 1.25 -9.8125 L 2.234375 -9.8125 C 2.347656 -9.8125 2.4375 -9.796875 2.5 -9.765625 C 2.5625 -9.742188 2.625 -9.679688 2.6875 -9.578125 L 6.078125 -3.546875 C 6.128906 -3.429688 6.179688 -3.316406 6.234375 -3.203125 C 6.285156 -3.085938 6.335938 -2.96875 6.390625 -2.84375 C 6.429688 -2.96875 6.476562 -3.085938 6.53125 -3.203125 C 6.582031 -3.328125 6.632812 -3.441406 6.6875 -3.546875 L 10.015625 -9.578125 C 10.066406 -9.679688 10.125 -9.742188 10.1875 -9.765625 C 10.257812 -9.796875 10.359375 -9.8125 10.484375 -9.8125 Z M 11.453125 -9.8125 "/></g></g></g><g fill="#ffffff" fill-opacity="1"><g transform="translate(149.795696, 228.530551)"><g><path d="M 10.3125 -4.90625 C 10.3125 -4.164062 10.191406 -3.488281 9.953125 -2.875 C 9.722656 -2.257812 9.394531 -1.726562 8.96875 -1.28125 C 8.550781 -0.84375 8.046875 -0.5 7.453125 -0.25 C 6.859375 -0.0078125 6.195312 0.109375 5.46875 0.109375 C 4.75 0.109375 4.09375 -0.0078125 3.5 -0.25 C 2.90625 -0.5 2.394531 -0.84375 1.96875 -1.28125 C 1.550781 -1.726562 1.222656 -2.257812 0.984375 -2.875 C 0.753906 -3.488281 0.640625 -4.164062 0.640625 -4.90625 C 0.640625 -5.632812 0.753906 -6.304688 0.984375 -6.921875 C 1.222656 -7.535156 1.550781 -8.0625 1.96875 -8.5 C 2.394531 -8.945312 2.90625 -9.296875 3.5 -9.546875 C 4.09375 -9.796875 4.75 -9.921875 5.46875 -9.921875 C 6.195312 -9.921875 6.859375 -9.796875 7.453125 -9.546875 C 8.046875 -9.296875 8.550781 -8.945312 8.96875 -8.5 C 9.394531 -8.0625 9.722656 -7.535156 9.953125 -6.921875 C 10.191406 -6.304688 10.3125 -5.632812 10.3125 -4.90625 Z M 8.953125 -4.90625 C 8.953125 -5.5 8.867188 -6.035156 8.703125 -6.515625 C 8.535156 -6.992188 8.300781 -7.398438 8 -7.734375 C 7.707031 -8.066406 7.34375 -8.320312 6.90625 -8.5 C 6.476562 -8.675781 6 -8.765625 5.46875 -8.765625 C 4.945312 -8.765625 4.472656 -8.675781 4.046875 -8.5 C 3.617188 -8.320312 3.25 -8.066406 2.9375 -7.734375 C 2.632812 -7.398438 2.398438 -6.992188 2.234375 -6.515625 C 2.078125 -6.035156 2 -5.5 2 -4.90625 C 2 -4.300781 2.078125 -3.757812 2.234375 -3.28125 C 2.398438 -2.800781 2.632812 -2.394531 2.9375 -2.0625 C 3.25 -1.738281 3.617188 -1.488281 4.046875 -1.3125 C 4.472656 -1.132812 4.945312 -1.046875 5.46875 -1.046875 C 6 -1.046875 6.476562 -1.132812 6.90625 -1.3125 C 7.34375 -1.488281 7.707031 -1.738281 8 -2.0625 C 8.300781 -2.394531 8.535156 -2.800781 8.703125 -3.28125 C 8.867188 -3.757812 8.953125 -4.300781 8.953125 -4.90625 Z M 8.953125 -4.90625 "/></g></g></g><g fill="#ffffff" fill-opacity="1"><g transform="translate(163.91625, 228.530551)"><g><path d="M 7.890625 -8.6875 L 4.703125 -8.6875 L 4.703125 0 L 3.390625 0 L 3.390625 -8.6875 L 0.203125 -8.6875 L 0.203125 -9.8125 L 7.890625 -9.8125 Z M 7.890625 -8.6875 "/></g></g></g><g fill="#ffffff" fill-opacity="1"><g transform="translate(175.162424, 228.530551)"><g><path d="M 10.3125 -4.90625 C 10.3125 -4.164062 10.191406 -3.488281 9.953125 -2.875 C 9.722656 -2.257812 9.394531 -1.726562 8.96875 -1.28125 C 8.550781 -0.84375 8.046875 -0.5 7.453125 -0.25 C 6.859375 -0.0078125 6.195312 0.109375 5.46875 0.109375 C 4.75 0.109375 4.09375 -0.0078125 3.5 -0.25 C 2.90625 -0.5 2.394531 -0.84375 1.96875 -1.28125 C 1.550781 -1.726562 1.222656 -2.257812 0.984375 -2.875 C 0.753906 -3.488281 0.640625 -4.164062 0.640625 -4.90625 C 0.640625 -5.632812 0.753906 -6.304688 0.984375 -6.921875 C 1.222656 -7.535156 1.550781 -8.0625 1.96875 -8.5 C 2.394531 -8.945312 2.90625 -9.296875 3.5 -9.546875 C 4.09375 -9.796875 4.75 -9.921875 5.46875 -9.921875 C 6.195312 -9.921875 6.859375 -9.796875 7.453125 -9.546875 C 8.046875 -9.296875 8.550781 -8.945312 8.96875 -8.5 C 9.394531 -8.0625 9.722656 -7.535156 9.953125 -6.921875 C 10.191406 -6.304688 10.3125 -5.632812 10.3125 -4.90625 Z M 8.953125 -4.90625 C 8.953125 -5.5 8.867188 -6.035156 8.703125 -6.515625 C 8.535156 -6.992188 8.300781 -7.398438 8 -7.734375 C 7.707031 -8.066406 7.34375 -8.320312 6.90625 -8.5 C 6.476562 -8.675781 6 -8.765625 5.46875 -8.765625 C 4.945312 -8.765625 4.472656 -8.675781 4.046875 -8.5 C 3.617188 -8.320312 3.25 -8.066406 2.9375 -7.734375 C 2.632812 -7.398438 2.398438 -6.992188 2.234375 -6.515625 C 2.078125 -6.035156 2 -5.5 2 -4.90625 C 2 -4.300781 2.078125 -3.757812 2.234375 -3.28125 C 2.398438 -2.800781 2.632812 -2.394531 2.9375 -2.0625 C 3.25 -1.738281 3.617188 -1.488281 4.046875 -1.3125 C 4.472656 -1.132812 4.945312 -1.046875 5.46875 -1.046875 C 6 -1.046875 6.476562 -1.132812 6.90625 -1.3125 C 7.34375 -1.488281 7.707031 -1.738281 8 -2.0625 C 8.300781 -2.394531 8.535156 -2.800781 8.703125 -3.28125 C 8.867188 -3.757812 8.953125 -4.300781 8.953125 -4.90625 Z M 8.953125 -4.90625 "/></g></g></g><g fill="#ffffff" fill-opacity="1"><g transform="translate(189.282979, 228.530551)"><g><path d="M 3.96875 -5.0625 C 4.351562 -5.0625 4.691406 -5.109375 4.984375 -5.203125 C 5.273438 -5.296875 5.519531 -5.425781 5.71875 -5.59375 C 5.914062 -5.757812 6.066406 -5.960938 6.171875 -6.203125 C 6.273438 -6.441406 6.328125 -6.707031 6.328125 -7 C 6.328125 -7.582031 6.132812 -8.019531 5.75 -8.3125 C 5.363281 -8.613281 4.789062 -8.765625 4.03125 -8.765625 L 2.578125 -8.765625 L 2.578125 -5.0625 Z M 8.5 0 L 7.328125 0 C 7.078125 0 6.894531 -0.09375 6.78125 -0.28125 L 4.25 -3.78125 C 4.164062 -3.894531 4.078125 -3.972656 3.984375 -4.015625 C 3.898438 -4.066406 3.765625 -4.09375 3.578125 -4.09375 L 2.578125 -4.09375 L 2.578125 0 L 1.25 0 L 1.25 -9.8125 L 4.03125 -9.8125 C 4.644531 -9.8125 5.175781 -9.75 5.625 -9.625 C 6.082031 -9.5 6.457031 -9.316406 6.75 -9.078125 C 7.039062 -8.835938 7.253906 -8.550781 7.390625 -8.21875 C 7.535156 -7.882812 7.609375 -7.507812 7.609375 -7.09375 C 7.609375 -6.738281 7.550781 -6.410156 7.4375 -6.109375 C 7.332031 -5.816406 7.175781 -5.550781 6.96875 -5.3125 C 6.769531 -5.070312 6.519531 -4.863281 6.21875 -4.6875 C 5.914062 -4.519531 5.578125 -4.394531 5.203125 -4.3125 C 5.367188 -4.21875 5.515625 -4.078125 5.640625 -3.890625 Z M 8.5 0 "/></g></g></g><g fill="#ffffff" fill-opacity="1"><g transform="translate(201.021916, 228.530551)"><g><path d="M 8.140625 -2.03125 C 8.210938 -2.03125 8.273438 -2 8.328125 -1.9375 L 8.859375 -1.375 C 8.453125 -0.90625 7.960938 -0.539062 7.390625 -0.28125 C 6.816406 -0.0195312 6.125 0.109375 5.3125 0.109375 C 4.613281 0.109375 3.972656 -0.0078125 3.390625 -0.25 C 2.816406 -0.5 2.328125 -0.84375 1.921875 -1.28125 C 1.523438 -1.71875 1.210938 -2.242188 0.984375 -2.859375 C 0.765625 -3.484375 0.65625 -4.164062 0.65625 -4.90625 C 0.65625 -5.644531 0.769531 -6.320312 1 -6.9375 C 1.226562 -7.550781 1.550781 -8.078125 1.96875 -8.515625 C 2.394531 -8.960938 2.898438 -9.304688 3.484375 -9.546875 C 4.078125 -9.796875 4.734375 -9.921875 5.453125 -9.921875 C 6.148438 -9.921875 6.765625 -9.804688 7.296875 -9.578125 C 7.828125 -9.359375 8.296875 -9.054688 8.703125 -8.671875 L 8.265625 -8.0625 C 8.234375 -8.019531 8.195312 -7.984375 8.15625 -7.953125 C 8.113281 -7.921875 8.054688 -7.90625 7.984375 -7.90625 C 7.898438 -7.90625 7.796875 -7.945312 7.671875 -8.03125 C 7.554688 -8.125 7.40625 -8.222656 7.21875 -8.328125 C 7.03125 -8.441406 6.789062 -8.539062 6.5 -8.625 C 6.21875 -8.71875 5.863281 -8.765625 5.4375 -8.765625 C 4.9375 -8.765625 4.472656 -8.675781 4.046875 -8.5 C 3.628906 -8.320312 3.269531 -8.066406 2.96875 -7.734375 C 2.664062 -7.398438 2.425781 -6.992188 2.25 -6.515625 C 2.082031 -6.035156 2 -5.5 2 -4.90625 C 2 -4.289062 2.085938 -3.742188 2.265625 -3.265625 C 2.441406 -2.785156 2.679688 -2.378906 2.984375 -2.046875 C 3.285156 -1.710938 3.644531 -1.457031 4.0625 -1.28125 C 4.476562 -1.113281 4.925781 -1.03125 5.40625 -1.03125 C 5.695312 -1.03125 5.957031 -1.046875 6.1875 -1.078125 C 6.425781 -1.117188 6.644531 -1.175781 6.84375 -1.25 C 7.039062 -1.320312 7.222656 -1.410156 7.390625 -1.515625 C 7.566406 -1.628906 7.738281 -1.765625 7.90625 -1.921875 C 7.976562 -1.992188 8.054688 -2.03125 8.140625 -2.03125 Z M 8.140625 -2.03125 "/></g></g></g><g fill="#ffffff" fill-opacity="1"><g transform="translate(213.32888, 228.530551)"><g><path d="M 4.9375 -3.90625 L 4.9375 0 L 3.609375 0 L 3.609375 -3.90625 L 0.015625 -9.8125 L 1.171875 -9.8125 C 1.296875 -9.8125 1.390625 -9.78125 1.453125 -9.71875 C 1.523438 -9.664062 1.585938 -9.59375 1.640625 -9.5 L 3.875 -5.6875 C 3.957031 -5.53125 4.03125 -5.378906 4.09375 -5.234375 C 4.164062 -5.097656 4.226562 -4.957031 4.28125 -4.8125 C 4.332031 -4.957031 4.390625 -5.097656 4.453125 -5.234375 C 4.515625 -5.378906 4.585938 -5.53125 4.671875 -5.6875 L 6.90625 -9.5 C 6.945312 -9.570312 7.003906 -9.640625 7.078125 -9.703125 C 7.148438 -9.773438 7.242188 -9.8125 7.359375 -9.8125 L 8.53125 -9.8125 Z M 4.9375 -3.90625 "/></g></g></g><g fill="#ffffff" fill-opacity="1"><g transform="translate(225.033599, 228.530551)"><g><path d="M 8.140625 -2.03125 C 8.210938 -2.03125 8.273438 -2 8.328125 -1.9375 L 8.859375 -1.375 C 8.453125 -0.90625 7.960938 -0.539062 7.390625 -0.28125 C 6.816406 -0.0195312 6.125 0.109375 5.3125 0.109375 C 4.613281 0.109375 3.972656 -0.0078125 3.390625 -0.25 C 2.816406 -0.5 2.328125 -0.84375 1.921875 -1.28125 C 1.523438 -1.71875 1.210938 -2.242188 0.984375 -2.859375 C 0.765625 -3.484375 0.65625 -4.164062 0.65625 -4.90625 C 0.65625 -5.644531 0.769531 -6.320312 1 -6.9375 C 1.226562 -7.550781 1.550781 -8.078125 1.96875 -8.515625 C 2.394531 -8.960938 2.898438 -9.304688 3.484375 -9.546875 C 4.078125 -9.796875 4.734375 -9.921875 5.453125 -9.921875 C 6.148438 -9.921875 6.765625 -9.804688 7.296875 -9.578125 C 7.828125 -9.359375 8.296875 -9.054688 8.703125 -8.671875 L 8.265625 -8.0625 C 8.234375 -8.019531 8.195312 -7.984375 8.15625 -7.953125 C 8.113281 -7.921875 8.054688 -7.90625 7.984375 -7.90625 C 7.898438 -7.90625 7.796875 -7.945312 7.671875 -8.03125 C 7.554688 -8.125 7.40625 -8.222656 7.21875 -8.328125 C 7.03125 -8.441406 6.789062 -8.539062 6.5 -8.625 C 6.21875 -8.71875 5.863281 -8.765625 5.4375 -8.765625 C 4.9375 -8.765625 4.472656 -8.675781 4.046875 -8.5 C 3.628906 -8.320312 3.269531 -8.066406 2.96875 -7.734375 C 2.664062 -7.398438 2.425781 -6.992188 2.25 -6.515625 C 2.082031 -6.035156 2 -5.5 2 -4.90625 C 2 -4.289062 2.085938 -3.742188 2.265625 -3.265625 C 2.441406 -2.785156 2.679688 -2.378906 2.984375 -2.046875 C 3.285156 -1.710938 3.644531 -1.457031 4.0625 -1.28125 C 4.476562 -1.113281 4.925781 -1.03125 5.40625 -1.03125 C 5.695312 -1.03125 5.957031 -1.046875 6.1875 -1.078125 C 6.425781 -1.117188 6.644531 -1.175781 6.84375 -1.25 C 7.039062 -1.320312 7.222656 -1.410156 7.390625 -1.515625 C 7.566406 -1.628906 7.738281 -1.765625 7.90625 -1.921875 C 7.976562 -1.992188 8.054688 -2.03125 8.140625 -2.03125 Z M 8.140625 -2.03125 "/></g></g></g><g fill="#ffffff" fill-opacity="1"><g transform="translate(237.340557, 228.530551)"><g><path d="M 6.8125 -1.109375 L 6.8125 0 L 1.25 0 L 1.25 -9.8125 L 2.578125 -9.8125 L 2.578125 -1.109375 Z M 6.8125 -1.109375 "/></g></g></g><g fill="#ffffff" fill-opacity="1"><g transform="translate(247.532802, 228.530551)"><g><path d="M 7.296875 -1.078125 L 7.296875 0 L 1.25 0 L 1.25 -9.8125 L 7.296875 -9.8125 L 7.296875 -8.71875 L 2.578125 -8.71875 L 2.578125 -5.46875 L 6.40625 -5.46875 L 6.40625 -4.421875 L 2.578125 -4.421875 L 2.578125 -1.078125 Z M 7.296875 -1.078125 "/></g></g></g><g fill="#ffffff" fill-opacity="1"><g transform="translate(258.601046, 228.530551)"><g/></g></g><g fill="#ffffff" fill-opacity="1"><g transform="translate(265.268762, 228.530551)"><g><path d="M 6.265625 -8.28125 C 6.222656 -8.207031 6.175781 -8.148438 6.125 -8.109375 C 6.082031 -8.078125 6.03125 -8.0625 5.96875 -8.0625 C 5.882812 -8.0625 5.789062 -8.097656 5.6875 -8.171875 C 5.582031 -8.253906 5.453125 -8.34375 5.296875 -8.4375 C 5.140625 -8.53125 4.945312 -8.613281 4.71875 -8.6875 C 4.5 -8.769531 4.234375 -8.8125 3.921875 -8.8125 C 3.628906 -8.8125 3.367188 -8.769531 3.140625 -8.6875 C 2.910156 -8.613281 2.71875 -8.507812 2.5625 -8.375 C 2.414062 -8.238281 2.300781 -8.078125 2.21875 -7.890625 C 2.144531 -7.703125 2.109375 -7.5 2.109375 -7.28125 C 2.109375 -7.007812 2.175781 -6.785156 2.3125 -6.609375 C 2.445312 -6.429688 2.625 -6.273438 2.84375 -6.140625 C 3.0625 -6.015625 3.3125 -5.90625 3.59375 -5.8125 C 3.875 -5.71875 4.160156 -5.617188 4.453125 -5.515625 C 4.753906 -5.421875 5.039062 -5.3125 5.3125 -5.1875 C 5.59375 -5.0625 5.84375 -4.898438 6.0625 -4.703125 C 6.289062 -4.515625 6.472656 -4.28125 6.609375 -4 C 6.742188 -3.726562 6.8125 -3.390625 6.8125 -2.984375 C 6.8125 -2.546875 6.738281 -2.140625 6.59375 -1.765625 C 6.445312 -1.390625 6.234375 -1.0625 5.953125 -0.78125 C 5.671875 -0.507812 5.328125 -0.289062 4.921875 -0.125 C 4.515625 0.03125 4.050781 0.109375 3.53125 0.109375 C 2.882812 0.109375 2.300781 -0.00390625 1.78125 -0.234375 C 1.257812 -0.460938 0.816406 -0.773438 0.453125 -1.171875 L 0.828125 -1.796875 C 0.867188 -1.847656 0.914062 -1.890625 0.96875 -1.921875 C 1.019531 -1.960938 1.078125 -1.984375 1.140625 -1.984375 C 1.203125 -1.984375 1.269531 -1.957031 1.34375 -1.90625 C 1.414062 -1.851562 1.5 -1.789062 1.59375 -1.71875 C 1.695312 -1.644531 1.804688 -1.566406 1.921875 -1.484375 C 2.046875 -1.398438 2.1875 -1.320312 2.34375 -1.25 C 2.507812 -1.175781 2.691406 -1.113281 2.890625 -1.0625 C 3.085938 -1.019531 3.3125 -1 3.5625 -1 C 3.875 -1 4.15625 -1.039062 4.40625 -1.125 C 4.65625 -1.207031 4.863281 -1.328125 5.03125 -1.484375 C 5.207031 -1.640625 5.335938 -1.828125 5.421875 -2.046875 C 5.515625 -2.265625 5.5625 -2.507812 5.5625 -2.78125 C 5.5625 -3.082031 5.492188 -3.328125 5.359375 -3.515625 C 5.222656 -3.703125 5.046875 -3.859375 4.828125 -3.984375 C 4.609375 -4.117188 4.359375 -4.226562 4.078125 -4.3125 C 3.796875 -4.40625 3.507812 -4.5 3.21875 -4.59375 C 2.925781 -4.6875 2.640625 -4.789062 2.359375 -4.90625 C 2.078125 -5.03125 1.820312 -5.191406 1.59375 -5.390625 C 1.375 -5.585938 1.195312 -5.832031 1.0625 -6.125 C 0.9375 -6.414062 0.875 -6.78125 0.875 -7.21875 C 0.875 -7.5625 0.9375 -7.894531 1.0625 -8.21875 C 1.195312 -8.550781 1.394531 -8.84375 1.65625 -9.09375 C 1.914062 -9.34375 2.234375 -9.539062 2.609375 -9.6875 C 2.984375 -9.84375 3.414062 -9.921875 3.90625 -9.921875 C 4.457031 -9.921875 4.957031 -9.832031 5.40625 -9.65625 C 5.851562 -9.476562 6.25 -9.226562 6.59375 -8.90625 Z M 6.265625 -8.28125 "/></g></g></g><g fill="#ffffff" fill-opacity="1"><g transform="translate(275.857946, 228.530551)"><g><path d="M 7.296875 -1.078125 L 7.296875 0 L 1.25 0 L 1.25 -9.8125 L 7.296875 -9.8125 L 7.296875 -8.71875 L 2.578125 -8.71875 L 2.578125 -5.46875 L 6.40625 -5.46875 L 6.40625 -4.421875 L 2.578125 -4.421875 L 2.578125 -1.078125 Z M 7.296875 -1.078125 "/></g></g></g><g fill="#ffffff" fill-opacity="1"><g transform="translate(286.92619, 228.530551)"><g><path d="M 3.96875 -5.0625 C 4.351562 -5.0625 4.691406 -5.109375 4.984375 -5.203125 C 5.273438 -5.296875 5.519531 -5.425781 5.71875 -5.59375 C 5.914062 -5.757812 6.066406 -5.960938 6.171875 -6.203125 C 6.273438 -6.441406 6.328125 -6.707031 6.328125 -7 C 6.328125 -7.582031 6.132812 -8.019531 5.75 -8.3125 C 5.363281 -8.613281 4.789062 -8.765625 4.03125 -8.765625 L 2.578125 -8.765625 L 2.578125 -5.0625 Z M 8.5 0 L 7.328125 0 C 7.078125 0 6.894531 -0.09375 6.78125 -0.28125 L 4.25 -3.78125 C 4.164062 -3.894531 4.078125 -3.972656 3.984375 -4.015625 C 3.898438 -4.066406 3.765625 -4.09375 3.578125 -4.09375 L 2.578125 -4.09375 L 2.578125 0 L 1.25 0 L 1.25 -9.8125 L 4.03125 -9.8125 C 4.644531 -9.8125 5.175781 -9.75 5.625 -9.625 C 6.082031 -9.5 6.457031 -9.316406 6.75 -9.078125 C 7.039062 -8.835938 7.253906 -8.550781 7.390625 -8.21875 C 7.535156 -7.882812 7.609375 -7.507812 7.609375 -7.09375 C 7.609375 -6.738281 7.550781 -6.410156 7.4375 -6.109375 C 7.332031 -5.816406 7.175781 -5.550781 6.96875 -5.3125 C 6.769531 -5.070312 6.519531 -4.863281 6.21875 -4.6875 C 5.914062 -4.519531 5.578125 -4.394531 5.203125 -4.3125 C 5.367188 -4.21875 5.515625 -4.078125 5.640625 -3.890625 Z M 8.5 0 "/></g></g></g><g fill="#ffffff" fill-opacity="1"><g transform="translate(298.665126, 228.530551)"><g><path d="M 9.21875 -9.8125 L 5.234375 0 L 4.03125 0 L 0.046875 -9.8125 L 1.109375 -9.8125 C 1.222656 -9.8125 1.316406 -9.78125 1.390625 -9.71875 C 1.460938 -9.65625 1.515625 -9.582031 1.546875 -9.5 L 4.3125 -2.578125 C 4.375 -2.421875 4.429688 -2.25 4.484375 -2.0625 C 4.546875 -1.882812 4.597656 -1.691406 4.640625 -1.484375 C 4.691406 -1.691406 4.738281 -1.882812 4.78125 -2.0625 C 4.832031 -2.25 4.890625 -2.421875 4.953125 -2.578125 L 7.71875 -9.5 C 7.738281 -9.570312 7.789062 -9.640625 7.875 -9.703125 C 7.957031 -9.773438 8.054688 -9.8125 8.171875 -9.8125 Z M 9.21875 -9.8125 "/></g></g></g><g fill="#ffffff" fill-opacity="1"><g transform="translate(311.095275, 228.530551)"><g><path d="M 2.578125 0 L 1.25 0 L 1.25 -9.8125 L 2.578125 -9.8125 Z M 2.578125 0 "/></g></g></g><g fill="#ffffff" fill-opacity="1"><g transform="translate(318.091494, 228.530551)"><g><path d="M 8.140625 -2.03125 C 8.210938 -2.03125 8.273438 -2 8.328125 -1.9375 L 8.859375 -1.375 C 8.453125 -0.90625 7.960938 -0.539062 7.390625 -0.28125 C 6.816406 -0.0195312 6.125 0.109375 5.3125 0.109375 C 4.613281 0.109375 3.972656 -0.0078125 3.390625 -0.25 C 2.816406 -0.5 2.328125 -0.84375 1.921875 -1.28125 C 1.523438 -1.71875 1.210938 -2.242188 0.984375 -2.859375 C 0.765625 -3.484375 0.65625 -4.164062 0.65625 -4.90625 C 0.65625 -5.644531 0.769531 -6.320312 1 -6.9375 C 1.226562 -7.550781 1.550781 -8.078125 1.96875 -8.515625 C 2.394531 -8.960938 2.898438 -9.304688 3.484375 -9.546875 C 4.078125 -9.796875 4.734375 -9.921875 5.453125 -9.921875 C 6.148438 -9.921875 6.765625 -9.804688 7.296875 -9.578125 C 7.828125 -9.359375 8.296875 -9.054688 8.703125 -8.671875 L 8.265625 -8.0625 C 8.234375 -8.019531 8.195312 -7.984375 8.15625 -7.953125 C 8.113281 -7.921875 8.054688 -7.90625 7.984375 -7.90625 C 7.898438 -7.90625 7.796875 -7.945312 7.671875 -8.03125 C 7.554688 -8.125 7.40625 -8.222656 7.21875 -8.328125 C 7.03125 -8.441406 6.789062 -8.539062 6.5 -8.625 C 6.21875 -8.71875 5.863281 -8.765625 5.4375 -8.765625 C 4.9375 -8.765625 4.472656 -8.675781 4.046875 -8.5 C 3.628906 -8.320312 3.269531 -8.066406 2.96875 -7.734375 C 2.664062 -7.398438 2.425781 -6.992188 2.25 -6.515625 C 2.082031 -6.035156 2 -5.5 2 -4.90625 C 2 -4.289062 2.085938 -3.742188 2.265625 -3.265625 C 2.441406 -2.785156 2.679688 -2.378906 2.984375 -2.046875 C 3.285156 -1.710938 3.644531 -1.457031 4.0625 -1.28125 C 4.476562 -1.113281 4.925781 -1.03125 5.40625 -1.03125 C 5.695312 -1.03125 5.957031 -1.046875 6.1875 -1.078125 C 6.425781 -1.117188 6.644531 -1.175781 6.84375 -1.25 C 7.039062 -1.320312 7.222656 -1.410156 7.390625 -1.515625 C 7.566406 -1.628906 7.738281 -1.765625 7.90625 -1.921875 C 7.976562 -1.992188 8.054688 -2.03125 8.140625 -2.03125 Z M 8.140625 -2.03125 "/></g></g></g><g fill="#ffffff" fill-opacity="1"><g transform="translate(330.398458, 228.530551)"><g><path d="M 7.296875 -1.078125 L 7.296875 0 L 1.25 0 L 1.25 -9.8125 L 7.296875 -9.8125 L 7.296875 -8.71875 L 2.578125 -8.71875 L 2.578125 -5.46875 L 6.40625 -5.46875 L 6.40625 -4.421875 L 2.578125 -4.421875 L 2.578125 -1.078125 Z M 7.296875 -1.078125 "/></g></g></g></svg>