<svg width="194" height="51" viewBox="0 0 194 51" fill="none" xmlns="http://www.w3.org/2000/svg">
<path d="M42.6801 1.40784C37.978 3.49786 23.6551 4.07447 17.9399 2.41655C11.2853 0.470327 11.5732 0.182026 11.5732 9.26462C11.5732 17.194 11.5732 17.2659 9.47504 19.2121C8.31772 20.2934 5.71374 22.3137 3.68772 23.6812L0.070741 26.1321L0 32.1865V38.2415L4.55784 43.4317C10.2723 50.1353 12.3698 51.0002 22.2806 51.0002H29.6589V47.8281C29.6589 46.0976 29.2974 44.5151 28.8637 44.3678C28.4301 44.2205 30.3104 39.8268 33.3487 34.132L38.5566 24.1126L43.1867 22.0945C45.6463 20.9412 47.7438 19.5716 47.7438 18.9929C47.7438 18.4882 47.2373 16.4701 46.6586 14.5239C45.8628 11.8565 45.7906 9.98291 46.2971 6.30617C47.3823 -1.18689 47.673 -0.826683 42.6801 1.40784ZM45.357 6.09329C44.9226 9.40631 44.9948 11.8593 45.4985 13.5899C45.9328 15.0314 46.2943 16.4729 46.2943 16.8324C46.2943 17.1919 43.7625 14.9581 40.7242 12.0031C37.6116 8.97209 34.3575 6.01998 33.418 5.44338C31.8264 4.36206 31.9714 4.29016 36.167 3.85806C38.5538 3.56976 41.5921 2.92055 42.8945 2.34395C43.7904 1.93393 44.7081 1.57295 45.6435 1.26264C45.8628 1.26334 45.7185 3.42596 45.357 6.09329ZM17.1448 3.13766C19.3144 3.78616 22.5699 4.50727 24.4509 4.72367L27.705 5.22838L23.7987 8.18331C21.629 9.84123 18.1564 12.5086 16.1311 14.2384L12.2969 17.2694V9.62835C12.2969 5.4476 12.5141 1.98797 12.7312 1.98797C12.9484 1.98797 14.9744 2.48915 17.1448 3.13766ZM41.5228 14.1665C44.344 16.9776 46.4414 19.3559 46.225 19.5004C46.08 19.6414 44.4883 20.3653 42.6801 21.0857C40.8713 21.8788 37.3993 24.3988 34.8675 26.7806C32.4078 29.1589 30.3104 30.8895 30.1654 30.7449C30.0203 30.6004 30.0946 24.6899 30.2361 17.698L30.5254 4.86888L33.4916 6.95961C35.1568 8.11141 38.7738 11.3553 41.5228 14.1665ZM29.5867 14.3822C29.516 19.284 29.2974 25.3391 29.008 27.79L28.5737 32.4029L24.9574 28.0783C22.8592 25.4829 19.7487 22.7437 17.2169 21.3021C14.9023 20.0051 13.0213 18.7074 13.0213 18.4191C13.0213 17.8425 28.3572 5.59 29.1502 5.59C29.4424 5.58859 29.5867 9.55293 29.5867 14.3822ZM15.6274 21.5905C18.8815 23.825 19.2444 24.3297 20.836 29.6636L22.572 35.3585L20.9082 36.6555C18.955 38.0977 19.3894 38.3134 8.89991 31.6099L1.37662 26.7087L6.29595 23.032C8.97208 21.0138 11.4317 19.284 11.6489 19.284C11.9361 19.2861 13.7443 20.3653 15.6274 21.5905ZM24.5231 29.0137C27.3442 32.4015 27.4892 32.8343 27.4892 37.4471C27.4892 45.1601 26.4762 43.9322 22.3527 31.1735C21.1954 27.6413 20.2552 24.6138 20.2552 24.3974C20.2552 23.8976 21.0511 24.7625 24.5231 29.0137ZM33.7823 31.3201C32.7693 33.1945 31.1062 36.222 30.0932 38.0237L28.2122 41.2662V38.3106C28.2122 35.7878 28.7187 34.6346 31.612 31.2468C33.493 29.0842 35.1568 27.3544 35.3019 27.4989C35.4469 27.6434 34.7225 29.3753 33.7823 31.3216V31.3201ZM16.5661 37.6642C28.4294 45.2327 29.008 45.6655 28.7909 47.7555L28.5737 49.9181L22.0655 50.1345L15.5573 50.351L13.6763 47.2494C12.664 45.5196 9.62572 40.6184 6.94888 36.3651C4.27205 32.0405 2.53607 28.7966 3.11473 29.1568C3.68914 29.4479 9.76579 33.2678 16.5661 37.6649V37.6642ZM7.37898 38.7455C9.98295 42.9263 12.4426 47.0351 12.9491 47.9C13.7442 49.4134 13.6721 49.4853 11.7911 48.7649C10.6338 48.3321 7.74047 45.6634 5.28293 42.7099C0.797953 37.5923 0.725803 37.3759 0.725803 33.2642C0.723681 28.1502 0.867979 28.2221 7.37898 38.7462V38.7455ZM24.0887 39.1057C24.7402 40.4753 25.0296 41.6286 24.7402 41.6286C24.3059 41.6286 21.7741 40.1151 20.3274 39.0338C19.9659 38.6736 21.7741 36.5829 22.3527 36.5829C22.6421 36.5836 23.4379 37.7368 24.0887 39.1064V39.1057Z" fill="white"/>
<path d="M71.0281 18.1721V21.0868H64.977V24.5359H71.0281C71.0125 24.8816 70.9601 25.2247 70.8718 25.5594C70.7888 25.8872 70.6449 26.1966 70.4474 26.4715C70.2496 26.7424 69.9943 26.9665 69.6996 27.1278C69.394 27.2984 69.0106 27.3837 68.5494 27.3837H64.977V33.7475H62.0058V20.7971C62.0058 19.9982 62.1898 19.3605 62.5576 18.884C62.9255 18.4075 63.5742 18.1702 64.5037 18.1721H71.0281Z" fill="white"/>
<path d="M78.8436 21.9546C80.0193 21.9546 81.0651 22.2365 81.981 22.8005C82.8655 23.3336 83.6053 24.0747 84.1357 24.9589C84.6597 25.8437 84.948 26.8472 84.9733 27.8743C85.0101 28.9425 84.7385 29.9881 84.1584 31.0111C83.6913 31.8295 83.0323 32.5232 82.2378 33.0327C81.4758 33.5273 80.6146 33.8502 79.7144 33.9787C78.8129 34.1031 77.8948 34.0271 77.0263 33.756C76.1079 33.4705 75.2752 32.9618 74.6034 32.2757C73.8203 31.4964 73.2647 30.5196 72.9962 29.4497C72.7276 28.3952 72.7506 27.2879 73.0627 26.2453C73.1832 25.8372 73.4108 25.4686 73.722 25.1774C74.0205 24.8998 74.374 24.6876 74.7597 24.5542C75.1472 24.421 75.5562 24.3607 75.9659 24.3766C76.3656 24.3877 76.7596 24.4745 77.1267 24.6325C77.4763 24.7819 77.7861 25.0105 78.0315 25.3C78.2816 25.5999 78.4334 25.9689 78.4666 26.3574C78.232 26.1907 77.951 26.1012 77.6629 26.1015C77.3498 26.0943 77.0395 26.163 76.7589 26.3017C76.4608 26.449 76.2066 26.6717 76.0217 26.9474C75.8208 27.2364 75.7204 27.5961 75.7204 28.0266C75.7204 28.7681 75.8767 29.3835 76.1894 29.8727C76.4749 30.3373 76.8795 30.7176 77.3616 30.9744C77.8298 31.219 78.3511 31.3451 78.8797 31.3417C79.4099 31.345 79.9323 31.2148 80.3985 30.9632C80.8816 30.6978 81.2859 30.3103 81.5707 29.8396C81.8834 29.3428 82.0397 28.7235 82.0397 27.9814C82.05 27.453 81.9432 26.9288 81.727 26.4462C81.5326 26.0226 81.2454 25.6479 80.8866 25.3494C80.5331 25.0579 80.1166 24.8521 79.6699 24.7481C79.1854 24.6371 78.6824 24.6335 78.1963 24.7375C77.9731 24.4706 77.6953 24.2543 77.3814 24.1031C77.0539 23.9454 76.7034 23.8402 76.3429 23.7915C75.9717 23.7398 75.5947 23.7474 75.2259 23.8141C74.8556 23.88 74.5002 24.0118 74.1768 24.2032C74.7451 23.512 75.452 22.9468 76.2524 22.5439C77.0577 22.1474 77.9454 21.9455 78.8436 21.9546Z" fill="white"/>
<path d="M85.2301 22.2436H88.6016L90.8795 25.3811L92.4202 23.2664C92.6334 22.9492 92.911 22.6803 93.2351 22.4769C93.537 22.2926 93.8699 22.1644 94.2177 22.0984C94.5783 22.0309 94.9464 22.0122 95.3121 22.0427C95.7079 22.0755 96.1001 22.1425 96.4843 22.2429L92.5539 27.6501L96.9759 33.7468H93.6037L90.8568 29.9862L88.1326 33.7468H84.8078L89.2071 27.6945L85.2301 22.2436Z" fill="white"/>
<path d="M113.455 18.1721V21.0868H107.426V24.5359H113.455C113.44 24.8817 113.387 25.2248 113.299 25.5594C113.215 25.8871 113.072 26.1965 112.874 26.4715C112.676 26.7423 112.421 26.9664 112.126 27.1278C111.821 27.2984 111.445 27.3837 110.998 27.3837H107.425V30.8327H113.454V33.7475H104.455V20.8641C104.455 20.0041 104.697 19.3403 105.181 18.8728C105.665 18.4052 106.278 18.1716 107.02 18.1721H113.455Z" fill="white"/>
<path d="M118.569 23.5568C118.691 23.2854 118.879 23.0483 119.116 22.8667C119.366 22.671 119.64 22.5067 119.931 22.3775C120.225 22.2449 120.532 22.1406 120.846 22.0659C121.132 21.9961 121.424 21.9513 121.718 21.932C122.286 21.9028 122.854 21.9823 123.392 22.166C123.967 22.3669 124.487 22.6982 124.911 23.1339C125.581 23.8308 125.916 24.8319 125.915 26.1374V33.7503H123.057C123.057 33.498 123.057 33.1575 123.068 32.7268C123.079 32.2961 123.079 31.8259 123.079 31.317V29.7197C123.079 29.1708 123.072 28.6516 123.057 28.1619C123.043 27.6722 123.019 27.2347 122.987 26.8494C122.971 26.565 122.933 26.2823 122.875 26.0035C122.756 25.5289 122.529 25.1729 122.194 24.9356C121.879 24.7063 121.5 24.5828 121.111 24.5831C120.605 24.5831 120.21 24.7203 119.927 24.9948C119.644 25.2692 119.503 25.629 119.503 26.074C119.297 25.9965 119.113 25.8704 118.967 25.7067C118.798 25.5361 118.662 25.3361 118.565 25.1167V33.7503H115.685V22.2217H118.565L118.569 23.5568Z" fill="white"/>
<path d="M129.354 20.4412C129.343 20.0747 129.424 19.7113 129.589 19.3838C129.737 19.1032 129.952 18.8627 130.214 18.6831C130.489 18.4986 130.795 18.3664 131.118 18.2933C131.462 18.212 131.815 18.1711 132.168 18.1714V22.3098H134.755C134.756 22.6008 134.73 22.8913 134.677 23.1776C134.628 23.4507 134.526 23.7115 134.376 23.9452C134.224 24.1777 134.017 24.3688 133.773 24.5014C133.519 24.6423 133.192 24.7128 132.79 24.7128H132.165V31.0097C132.165 31.2475 132.254 31.4145 132.433 31.5109C132.625 31.6105 132.841 31.6565 133.058 31.6441C133.305 31.6351 133.548 31.5784 133.773 31.477C133.985 31.3946 134.165 31.2464 134.286 31.0541C134.48 31.5433 134.491 31.977 134.32 32.3553C134.15 32.7328 133.87 33.0506 133.516 33.2675C133.129 33.5057 132.694 33.6577 132.242 33.713C131.786 33.7818 131.32 33.7436 130.881 33.6016C130.456 33.4587 130.082 33.1966 129.803 32.8466C129.505 32.4829 129.356 31.9895 129.356 31.3664V24.7149H127.927V22.312H129.356L129.354 20.4412Z" fill="white"/>
<path d="M136.544 22.1773H139.046V23.6456C139.269 23.1643 139.601 22.7414 140.017 22.4106C140.391 22.1147 140.846 21.94 141.323 21.9101C141.948 21.866 142.454 21.9809 142.842 22.2548C143.206 22.5017 143.489 22.8501 143.656 23.2565C143.811 23.6362 143.854 24.0518 143.78 24.4548C143.748 24.6486 143.678 24.8342 143.574 25.0008C143.47 25.1674 143.334 25.3118 143.173 25.4255C143.116 25.2505 143.015 25.0927 142.88 24.9664C142.746 24.8401 142.582 24.7493 142.403 24.7022C142.01 24.592 141.592 24.6075 141.209 24.7466C140.768 24.9041 140.379 25.1771 140.081 25.5368C139.746 25.9231 139.549 26.4276 139.489 27.0502C139.459 27.406 139.445 27.7584 139.445 28.1076V33.7468H136.544V22.1773Z" fill="white"/>
<path d="M153.939 29.2968C153.138 29.505 152.405 29.579 151.74 29.5188C151.076 29.4587 150.533 29.2994 150.113 29.0409C149.71 28.8083 149.408 28.4358 149.264 27.9948C149.123 27.5578 149.164 27.0644 149.387 26.5145C149.839 26.8964 150.404 27.1193 150.995 27.149C151.583 27.1864 152.173 27.1751 152.759 27.1151C153.235 27.0705 153.597 26.9666 153.842 26.8036C154.087 26.6405 154.24 26.4525 154.299 26.2396C154.358 26.0128 154.334 25.7728 154.233 25.5615C154.118 25.3104 153.946 25.0894 153.73 24.9158C153.477 24.7111 153.19 24.5529 152.881 24.4485C152.525 24.3269 152.149 24.2738 151.773 24.292C151.348 24.3205 150.932 24.4261 150.545 24.6036C150.159 24.7812 149.811 25.0304 149.518 25.3381C149.216 25.656 148.974 26.0254 148.804 26.4285C148.62 26.8659 148.522 27.3341 148.514 27.808C148.497 28.2208 148.545 28.6336 148.655 29.0317C148.763 29.4233 148.932 29.7952 149.157 30.1335C149.374 30.46 149.646 30.7463 149.962 30.9794C150.278 31.2107 150.648 31.3593 151.037 31.4115C151.618 31.5141 152.215 31.4759 152.779 31.3001C153.383 31.1163 153.93 30.7789 154.364 30.321L156.709 31.4559C156.096 32.361 155.374 33.0099 154.543 33.4028C153.712 33.7957 152.759 33.9921 151.684 33.9921C150.687 33.9921 149.812 33.818 149.06 33.4698C148.342 33.146 147.702 32.6716 147.185 32.079C146.687 31.5019 146.307 30.8327 146.068 30.1095C145.823 29.3859 145.706 28.6257 145.72 27.8623C145.736 27.093 145.887 26.3324 146.166 25.6151C146.443 24.8917 146.86 24.2299 147.394 23.6682C147.964 23.047 148.683 22.58 149.483 22.3105C150.27 22.0449 151.096 21.9097 151.927 21.9102C152.851 21.9102 153.647 22.0659 154.317 22.3775C154.938 22.6543 155.493 23.06 155.944 23.5674C156.348 24.0251 156.632 24.5757 156.77 25.1696C156.905 25.7306 156.894 26.3166 156.737 26.8719C156.569 27.4402 156.249 27.952 155.81 28.3522C155.352 28.7897 154.728 29.1046 153.939 29.2968Z" fill="white"/>
<path d="M164.39 38.2201C163.663 38.2223 162.939 38.1326 162.235 37.9529C161.596 37.7995 160.993 37.5237 160.46 37.1409C159.981 36.7941 159.616 36.3141 159.41 35.7614C159.202 35.205 159.209 34.5412 159.432 33.77C159.701 34.0643 160.013 34.3149 160.359 34.513C160.742 34.7401 161.144 34.9324 161.562 35.0875C161.983 35.2443 162.416 35.3687 162.857 35.4597C163.257 35.5456 163.665 35.5834 164.074 35.5725C164.758 35.5424 165.317 35.4303 165.749 35.2362C166.143 35.0701 166.491 34.8127 166.765 34.4855C167.01 34.1809 167.181 33.8246 167.267 33.4437C167.358 33.0471 167.403 32.6415 167.401 32.2348C166.884 32.7671 166.256 33.1808 165.562 33.4472C164.924 33.6879 164.245 33.8011 163.564 33.7806C162.888 33.7574 162.223 33.599 161.61 33.3147C160.978 33.0244 160.41 32.6118 159.939 32.1009C159.434 31.5508 159.039 30.9102 158.774 30.2131C158.484 29.4716 158.339 28.641 158.339 27.7213C158.327 26.8883 158.486 26.0615 158.807 25.2923C159.098 24.5979 159.527 23.9697 160.069 23.4461C160.59 22.9464 161.205 22.5531 161.878 22.2887C162.548 22.0231 163.267 21.9018 163.988 21.9327C164.703 21.9633 165.276 22.1228 165.708 22.4113C166.14 22.6999 166.456 23.0335 166.656 23.4123C166.852 23.7717 166.959 24.1723 166.969 24.581C166.976 24.9814 166.913 25.3002 166.78 25.5376C166.646 25.3602 166.483 25.2061 166.299 25.0815C166.113 24.9551 165.91 24.8541 165.697 24.7812C165.479 24.7068 165.255 24.6546 165.027 24.6254C164.808 24.5967 164.588 24.5818 164.368 24.581C163.682 24.581 163.109 24.7441 162.648 25.0702C162.201 25.3798 161.84 25.7971 161.598 26.2833C161.359 26.7718 161.233 27.308 161.23 27.8517C161.218 28.3932 161.333 28.9299 161.566 29.4194C161.802 29.91 162.164 30.3297 162.615 30.6361C163.084 30.9622 163.669 31.1253 164.368 31.1253C164.963 31.1253 165.454 31.0078 165.842 30.7728C166.225 30.5394 166.543 30.2145 166.768 29.8276C167.006 29.4134 167.173 28.962 167.259 28.4925C167.357 27.9901 167.406 27.4795 167.405 26.9678V22.2288H170.305V32.4639C170.316 33.2733 170.188 34.0786 169.926 34.845C169.689 35.5292 169.303 36.1523 168.794 36.6693C168.272 37.1886 167.638 37.5842 166.942 37.8267C166.208 38.0894 165.358 38.2205 164.39 38.2201Z" fill="white"/>
<path d="M181.161 32.4794C180.637 33.0004 180.011 33.4083 179.322 33.6777C178.686 33.9255 178.006 34.0429 177.324 34.0231C176.649 33.9993 175.985 33.8444 175.37 33.567C174.733 33.2824 174.163 32.8693 173.694 32.3539C173.193 31.8013 172.799 31.1611 172.531 30.4655C172.241 29.731 172.096 28.8966 172.095 27.9624C172.087 27.1173 172.246 26.2789 172.564 25.4953C172.854 24.774 173.282 24.1164 173.826 23.5596C174.342 23.0338 174.957 22.6142 175.635 22.3246C176.3 22.0373 177.021 21.904 177.745 21.9348C178.46 21.9654 179.033 22.1249 179.464 22.4135C179.861 22.6654 180.188 23.0137 180.413 23.4257C180.607 23.7858 180.714 24.1859 180.726 24.5944C180.733 24.987 180.67 25.2993 180.537 25.5397C180.286 25.161 179.904 24.8881 179.463 24.7735C179.028 24.6483 178.577 24.5833 178.124 24.5803C177.439 24.5803 176.866 24.7476 176.405 25.0822C175.952 25.4063 175.591 25.8407 175.355 26.344C175.115 26.8579 174.989 27.4174 174.986 27.9843C174.974 28.5493 175.088 29.11 175.322 29.6253C175.552 30.1315 175.914 30.5671 176.371 30.887C176.839 31.2221 177.424 31.3894 178.124 31.3889C178.719 31.3889 179.211 31.2554 179.598 30.9885C179.985 30.7216 180.302 30.3669 180.525 29.9537C180.763 29.5081 180.929 29.0274 181.015 28.5298C181.112 28.0123 181.16 27.4871 181.161 26.9607V22.2217H184.062V33.7475H181.161V32.4794Z" fill="white"/>
<path d="M192.035 25.7596C191.929 25.4967 191.761 25.2637 191.544 25.0808C191.341 24.9133 191.11 24.7817 190.863 24.6917C190.634 24.6057 190.393 24.5567 190.148 24.5465C189.955 24.5338 189.761 24.5605 189.579 24.6247C189.31 24.7135 189.135 24.8655 189.054 25.0808C188.972 25.296 189.013 25.5 189.177 25.6926C189.31 25.8416 189.523 25.9863 189.814 26.1268C190.104 26.2674 190.428 26.4229 190.785 26.5935C191.142 26.765 191.511 26.9579 191.89 27.1722C192.267 27.3852 192.615 27.643 192.929 27.9398C193.245 28.2412 193.506 28.5952 193.699 28.9859C193.9 29.3863 194.001 29.8609 194.001 30.4098C194.001 31.048 193.859 31.6079 193.576 32.0896C193.301 32.5643 192.914 32.9653 192.449 33.2583C191.964 33.561 191.426 33.7686 190.863 33.8701C190.274 33.9813 189.67 33.9925 189.077 33.9033C188.46 33.8097 187.865 33.6022 187.324 33.2914C186.748 32.9636 186.246 32.5203 185.85 31.9895L187.637 30.0764C188.008 30.5214 188.399 30.8403 188.809 31.0329C189.165 31.2111 189.551 31.3206 189.948 31.3558C190.297 31.3774 190.591 31.3255 190.83 31.2C191.069 31.0745 191.214 30.9039 191.265 30.6882C191.317 30.4735 191.254 30.2362 191.076 29.9763C190.897 29.7164 190.554 29.4605 190.048 29.2087C189.572 28.9709 189.106 28.726 188.653 28.4742C188.221 28.2373 187.816 27.9536 187.447 27.6283C187.107 27.3295 186.82 26.9762 186.598 26.5829C186.374 26.1659 186.262 25.6981 186.274 25.2253C186.264 24.7293 186.379 24.2389 186.608 23.7986C186.826 23.3895 187.131 23.0326 187.502 22.7525C187.883 22.4667 188.315 22.2553 188.775 22.1294C189.255 21.9958 189.752 21.9359 190.249 21.9517C191.112 21.9964 191.771 22.1844 192.225 22.5157C192.679 22.847 192.962 23.2253 193.074 23.6505C193.187 24.0622 193.147 24.5006 192.962 24.8855C192.779 25.2863 192.447 25.6 192.035 25.7596Z" fill="white"/>
</svg>
