<svg width="194" height="51" viewBox="0 0 194 51" fill="none" xmlns="http://www.w3.org/2000/svg">
<path d="M42.68 1.40784C37.9779 3.49785 23.655 4.07445 17.9398 2.41654C11.2853 0.470326 11.5732 0.182025 11.5732 9.26459C11.5732 17.194 11.5732 17.2659 9.47501 19.2121C8.31769 20.2934 5.71372 22.3136 3.68771 23.6811L0.0707407 26.132L0 32.1864V38.2414L4.55782 43.4315C10.2723 50.1351 12.3697 51 22.2805 51H29.6588V47.828C29.6588 46.0975 29.2973 44.515 28.8636 44.3676C28.43 44.2203 30.3103 39.8267 33.3486 34.1319L38.5565 24.1125L43.1865 22.0944C45.6462 20.9412 47.7436 19.5716 47.7436 18.9928C47.7436 18.4881 47.2371 16.47 46.6585 14.5238C45.8626 11.8565 45.7905 9.98288 46.297 6.30615C47.3821 -1.18688 47.6729 -0.82668 42.68 1.40784ZM45.3568 6.09327C44.9225 9.40628 44.9946 11.8593 45.4983 13.5898C45.9327 15.0313 46.2941 16.4728 46.2941 16.8323C46.2941 17.1918 43.7623 14.958 40.724 12.0031C37.6114 8.97206 34.3573 6.01996 33.4179 5.44336C31.8262 4.36205 31.9713 4.29015 36.1669 3.85805C38.5537 3.56975 41.592 2.92054 42.8943 2.34394C43.7902 1.93392 44.7079 1.57295 45.6433 1.26263C45.8626 1.26334 45.7183 3.42595 45.3568 6.09327ZM17.1447 3.13765C19.3143 3.78615 22.5698 4.50726 24.4508 4.72366L27.7049 5.22837L23.7986 8.18328C21.629 9.8412 18.1563 12.5085 16.131 14.2383L12.2968 17.2694V9.62832C12.2968 5.44759 12.514 1.98796 12.7312 1.98796C12.9484 1.98796 14.9744 2.48914 17.1447 3.13765ZM41.5227 14.1664C44.3438 16.9775 46.4413 19.3559 46.2248 19.5004C46.0798 19.6413 44.4881 20.3653 42.68 21.0857C40.8712 21.8787 37.3992 24.3987 34.8674 26.7805C32.4077 29.1588 30.3103 30.8894 30.1653 30.7448C30.0202 30.6003 30.0945 24.6898 30.236 17.698L30.5253 4.86887L33.4915 6.95959C35.1567 8.11139 38.7737 11.3553 41.5227 14.1664ZM29.5866 14.3821C29.5159 19.284 29.2973 25.339 29.0079 27.7899L28.5736 32.4028L24.9573 28.0782C22.8591 25.4828 19.7487 22.7436 17.2169 21.3021C14.9022 20.0051 13.0212 18.7074 13.0212 18.4191C13.0212 17.8425 28.3571 5.58998 29.1501 5.58998C29.4423 5.58857 29.5866 9.55289 29.5866 14.3821ZM15.6273 21.5904C18.8814 23.8249 19.2443 24.3296 20.836 29.6635L22.5719 35.3584L20.9081 36.6554C18.955 38.0976 19.3893 38.3133 8.89988 31.6098L1.37661 26.7086L6.29593 23.0319C8.97205 21.0138 11.4317 19.284 11.6489 19.284C11.9361 19.2861 13.7442 20.3653 15.6273 21.5904ZM24.523 29.0136C27.3441 32.4013 27.4891 32.8342 27.4891 37.447C27.4891 45.1599 26.4761 43.932 22.3527 31.1734C21.1953 27.6412 20.2552 24.6137 20.2552 24.3973C20.2552 23.8975 21.051 24.7624 24.523 29.0136ZM33.7822 31.32C32.7692 33.1944 31.1061 36.2219 30.0931 38.0236L28.2121 41.2661V38.3105C28.2121 35.7877 28.7186 34.6345 31.6119 31.2467C33.4929 29.0841 35.1567 27.3543 35.3018 27.4988C35.4468 27.6433 34.7224 29.3752 33.7822 31.3215V31.32ZM16.5661 37.6641C28.4293 45.2325 29.0079 45.6654 28.7908 47.7554L28.5736 49.918L22.0654 50.1344L15.5573 50.3508L13.6763 47.2493C12.664 45.5194 9.62569 40.6183 6.94886 36.365C4.27203 32.0404 2.53606 28.7965 3.11472 29.1567C3.68913 29.4478 9.76575 33.2677 16.5661 37.6648V37.6641ZM7.37895 38.7454C9.98292 42.9261 12.4426 47.035 12.9491 47.8999C13.7442 49.4133 13.6721 49.4852 11.7911 48.7648C10.6337 48.332 7.74045 45.6632 5.28291 42.7097C0.797951 37.5922 0.725801 37.3758 0.725801 33.2641C0.723678 28.1501 0.867976 28.222 7.37895 38.7461V38.7454ZM24.0886 39.1056C24.7402 40.4752 25.0295 41.6284 24.7402 41.6284C24.3058 41.6284 21.774 40.115 20.3273 39.0337C19.9659 38.6735 21.774 36.5828 22.3527 36.5828C22.642 36.5835 23.4378 37.7367 24.0886 39.1063V39.1056Z" fill="#1117A3"/>
<path d="M71.0279 18.172V21.0867H64.9767V24.5358H71.0279C71.0122 24.8815 70.9598 25.2246 70.8716 25.5593C70.7886 25.8871 70.6446 26.1965 70.4471 26.4714C70.2494 26.7424 69.9941 26.9664 69.6994 27.1277C69.3938 27.2983 69.0104 27.3836 68.5492 27.3836H64.9767V33.7474H62.0056V20.797C62.0056 19.9982 62.1896 19.3605 62.5574 18.884C62.9253 18.4074 63.574 18.1701 64.5035 18.172H71.0279Z" fill="#1117A3"/>
<path d="M78.8434 21.9545C80.0191 21.9545 81.0649 22.2365 81.9807 22.8004C82.8652 23.3335 83.6051 24.0746 84.1355 24.9588C84.6594 25.8436 84.9477 26.8472 84.973 27.8742C85.0098 28.9424 84.7382 29.988 84.1581 31.011C83.691 31.8294 83.032 32.5231 82.2375 33.0326C81.4755 33.5272 80.6144 33.8501 79.7142 33.9786C78.8126 34.103 77.8946 34.027 77.026 33.7559C76.1076 33.4704 75.275 32.9617 74.6031 32.2756C73.8201 31.4963 73.2645 30.5195 72.9959 29.4497C72.7274 28.3951 72.7504 27.2878 73.0624 26.2452C73.183 25.8372 73.4106 25.4685 73.7217 25.1773C74.0202 24.8997 74.3737 24.6875 74.7595 24.5542C75.147 24.4209 75.556 24.3607 75.9656 24.3765C76.3654 24.3876 76.7593 24.4744 77.1265 24.6324C77.476 24.7819 77.7858 25.0104 78.0313 25.2999C78.2813 25.5998 78.4331 25.9688 78.4663 26.3573C78.2317 26.1906 77.9508 26.1012 77.6627 26.1014C77.3495 26.0942 77.0393 26.1629 76.7586 26.3016C76.4605 26.449 76.2064 26.6716 76.0215 26.9473C75.8206 27.2363 75.7201 27.596 75.7201 28.0265C75.7201 28.768 75.8765 29.3834 76.1892 29.8726C76.4746 30.3372 76.8793 30.7175 77.3613 30.9743C77.8295 31.2189 78.3508 31.345 78.8794 31.3416C79.4096 31.3449 79.932 31.2147 80.3982 30.9631C80.8813 30.6978 81.2856 30.3102 81.5704 29.8395C81.8831 29.3428 82.0394 28.7234 82.0394 27.9814C82.0497 27.4529 81.943 26.9287 81.7268 26.4461C81.5323 26.0226 81.2452 25.6478 80.8864 25.3493C80.5329 25.0578 80.1164 24.852 79.6696 24.748C79.1851 24.6371 78.6821 24.6334 78.1961 24.7374C77.9729 24.4706 77.695 24.2543 77.3811 24.103C77.0536 23.9453 76.7031 23.8402 76.3427 23.7915C75.9715 23.7398 75.5944 23.7474 75.2257 23.814C74.8554 23.8799 74.5 24.0117 74.1766 24.2031C74.7448 23.5119 75.4518 22.9467 76.2521 22.5438C77.0574 22.1473 77.9452 21.9454 78.8434 21.9545Z" fill="#1117A3"/>
<path d="M85.2298 22.2435H88.6013L90.8792 25.381L92.4199 23.2663C92.6331 22.9492 92.9107 22.6802 93.2348 22.4768C93.5367 22.2926 93.8696 22.1643 94.2174 22.0983C94.578 22.0309 94.9461 22.0121 95.3118 22.0426C95.7076 22.0754 96.0998 22.1424 96.4839 22.2428L92.5536 27.65L96.9756 33.7467H93.6034L90.8565 29.9861L88.1323 33.7467H84.8075L89.2069 27.6945L85.2298 22.2435Z" fill="#1117A3"/>
<path d="M113.455 18.1721V21.0868H107.425V24.5358H113.455C113.439 24.8816 113.387 25.2247 113.298 25.5594C113.215 25.8871 113.071 26.1964 112.874 26.4715C112.676 26.7423 112.42 26.9663 112.125 27.1277C111.821 27.2983 111.445 27.3836 110.998 27.3836H107.425V30.8327H113.454V33.7474H104.455V20.8641C104.455 20.0041 104.697 19.3403 105.181 18.8727C105.665 18.4051 106.278 18.1716 107.02 18.1721H113.455Z" fill="#1117A3"/>
<path d="M118.568 23.5568C118.691 23.2853 118.879 23.0483 119.115 22.8667C119.366 22.671 119.64 22.5067 119.93 22.3775C120.225 22.2449 120.531 22.1405 120.846 22.0659C121.132 21.9961 121.423 21.9513 121.717 21.932C122.285 21.9028 122.854 21.9822 123.392 22.166C123.966 22.3668 124.486 22.6982 124.91 23.1338C125.581 23.8307 125.915 24.8319 125.915 26.1374V33.7502H123.057C123.057 33.4979 123.057 33.1574 123.068 32.7267C123.078 32.296 123.079 31.8259 123.079 31.3169V29.7196C123.079 29.1708 123.072 28.6515 123.057 28.1618C123.042 27.6722 123.019 27.2347 122.986 26.8493C122.97 26.565 122.933 26.2822 122.874 26.0034C122.755 25.5288 122.528 25.1728 122.193 24.9355C121.879 24.7063 121.5 24.5828 121.11 24.5831C120.604 24.5831 120.21 24.7203 119.927 24.9947C119.644 25.2692 119.502 25.6289 119.502 26.0739C119.297 25.9964 119.113 25.8704 118.967 25.7067C118.798 25.536 118.662 25.3361 118.565 25.1167V33.7502H115.684V22.2217H118.565L118.568 23.5568Z" fill="#1117A3"/>
<path d="M129.354 20.4411C129.342 20.0747 129.423 19.7112 129.589 19.3837C129.737 19.1031 129.952 18.8627 130.214 18.6831C130.488 18.4985 130.795 18.3664 131.118 18.2933C131.462 18.2119 131.814 18.171 132.168 18.1713V22.3098H134.755C134.755 22.6008 134.729 22.8912 134.677 23.1775C134.628 23.4506 134.526 23.7114 134.376 23.9451C134.224 24.1776 134.016 24.3687 133.772 24.5013C133.519 24.6423 133.192 24.7127 132.79 24.7127H132.165V31.0096C132.165 31.2474 132.254 31.4144 132.432 31.5108C132.625 31.6104 132.841 31.6564 133.058 31.644C133.304 31.635 133.547 31.5783 133.772 31.4769C133.984 31.3945 134.165 31.2462 134.286 31.054C134.48 31.5432 134.491 31.9769 134.32 32.3552C134.149 32.7327 133.869 33.0505 133.515 33.2674C133.128 33.5056 132.694 33.6576 132.242 33.7128C131.786 33.7816 131.319 33.7435 130.88 33.6015C130.456 33.4586 130.081 33.1964 129.803 32.8465C129.504 32.4828 129.355 31.9894 129.356 31.3662V24.7149H127.927V22.3119H129.356L129.354 20.4411Z" fill="#1117A3"/>
<path d="M136.544 22.1772H139.045V23.6455C139.268 23.1642 139.601 22.7413 140.016 22.4105C140.39 22.1146 140.846 21.9399 141.322 21.91C141.948 21.8659 142.454 21.9808 142.841 22.2547C143.206 22.5016 143.489 22.85 143.656 23.2564C143.811 23.6361 143.853 24.0517 143.779 24.4547C143.748 24.6485 143.678 24.8341 143.574 25.0007C143.47 25.1673 143.333 25.3117 143.173 25.4254C143.115 25.2504 143.014 25.0926 142.88 24.9663C142.745 24.84 142.581 24.7492 142.402 24.7021C142.01 24.5919 141.592 24.6074 141.208 24.7465C140.768 24.904 140.378 25.177 140.081 25.5367C139.745 25.923 139.548 26.4275 139.489 27.0501C139.459 27.4059 139.444 27.7583 139.444 28.1075V33.7466H136.544V22.1772Z" fill="#1117A3"/>
<path d="M153.939 29.2967C153.137 29.5049 152.404 29.5789 151.74 29.5187C151.075 29.4586 150.533 29.2993 150.112 29.0408C149.71 28.8082 149.408 28.4357 149.264 27.9947C149.122 27.5577 149.163 27.0643 149.387 26.5145C149.838 26.8963 150.403 27.1192 150.995 27.1489C151.582 27.1863 152.172 27.175 152.758 27.115C153.235 27.0704 153.596 26.9665 153.841 26.8035C154.086 26.6404 154.239 26.4524 154.299 26.2396C154.357 26.0128 154.334 25.7727 154.232 25.5614C154.117 25.3103 153.945 25.0893 153.729 24.9158C153.477 24.711 153.189 24.5528 152.881 24.4484C152.525 24.3268 152.149 24.2737 151.773 24.2919C151.348 24.3204 150.932 24.426 150.545 24.6035C150.159 24.7811 149.81 25.0304 149.518 25.338C149.216 25.656 148.974 26.0253 148.803 26.4285C148.62 26.8659 148.521 27.334 148.513 27.8079C148.496 28.2207 148.544 28.6335 148.655 29.0316C148.762 29.4232 148.932 29.7951 149.157 30.1334C149.373 30.4599 149.646 30.7462 149.961 30.9793C150.278 31.2107 150.647 31.3592 151.036 31.4114C151.617 31.514 152.215 31.4758 152.778 31.3C153.383 31.1162 153.929 30.7788 154.363 30.3209L156.708 31.4558C156.095 32.3609 155.373 33.0098 154.542 33.4027C153.711 33.7956 152.758 33.992 151.684 33.992C150.686 33.992 149.812 33.8179 149.06 33.4697C148.342 33.1459 147.702 32.6715 147.185 32.0789C146.686 31.5018 146.307 30.8326 146.068 30.1094C145.823 29.3858 145.705 28.6256 145.719 27.8622C145.735 27.0929 145.886 26.3323 146.166 25.615C146.442 24.8916 146.86 24.2299 147.394 23.6681C147.964 23.047 148.682 22.5799 149.482 22.3105C150.27 22.0449 151.096 21.9096 151.927 21.9101C152.85 21.9101 153.647 22.0659 154.317 22.3774C154.938 22.6543 155.492 23.0599 155.944 23.5673C156.348 24.0251 156.632 24.5756 156.77 25.1695C156.905 25.7305 156.893 26.3165 156.737 26.8718C156.569 27.4401 156.248 27.9519 155.81 28.3521C155.352 28.7896 154.728 29.1045 153.939 29.2967Z" fill="#1117A3"/>
<path d="M164.389 38.2199C163.663 38.2222 162.939 38.1324 162.235 37.9527C161.596 37.7993 160.992 37.5235 160.459 37.1407C159.981 36.7939 159.616 36.314 159.41 35.7612C159.202 35.2048 159.209 34.541 159.432 33.7699C159.7 34.0641 160.013 34.3148 160.359 34.5128C160.741 34.7399 161.144 34.9322 161.561 35.0873C161.983 35.2441 162.416 35.3685 162.856 35.4595C163.256 35.5454 163.665 35.5833 164.073 35.5723C164.758 35.5422 165.316 35.4301 165.748 35.2361C166.142 35.0699 166.49 34.8125 166.764 34.4854C167.009 34.1807 167.181 33.8244 167.266 33.4435C167.357 33.0469 167.402 32.6414 167.401 32.2346C166.883 32.7669 166.256 33.1806 165.562 33.447C164.924 33.6877 164.245 33.801 163.563 33.7805C162.887 33.7573 162.223 33.5988 161.609 33.3145C160.977 33.0242 160.409 32.6116 159.938 32.1007C159.434 31.5507 159.038 30.9101 158.773 30.213C158.483 29.4714 158.338 28.6408 158.338 27.7212C158.326 26.8881 158.485 26.0614 158.807 25.2921C159.097 24.5977 159.526 23.9696 160.069 23.446C160.59 22.9462 161.204 22.553 161.877 22.2886C162.548 22.023 163.267 21.9017 163.988 21.9326C164.702 21.9631 165.275 22.1227 165.707 22.4112C166.139 22.6998 166.455 23.0334 166.656 23.4122C166.852 23.7716 166.959 24.1721 166.969 24.5809C166.976 24.9813 166.912 25.3001 166.779 25.5374C166.645 25.3601 166.483 25.206 166.299 25.0814C166.112 24.9549 165.909 24.8539 165.696 24.7811C165.479 24.7067 165.254 24.6545 165.026 24.6253C164.808 24.5965 164.588 24.5817 164.367 24.5809C163.682 24.5809 163.109 24.7439 162.648 25.0701C162.201 25.3796 161.839 25.797 161.598 26.2832C161.358 26.7717 161.232 27.3078 161.229 27.8516C161.218 28.3931 161.333 28.9298 161.565 29.4193C161.801 29.9098 162.163 30.3295 162.615 30.6359C163.084 30.9621 163.668 31.1251 164.367 31.1251C164.962 31.1251 165.453 31.0076 165.841 30.7727C166.224 30.5393 166.543 30.2144 166.768 29.8274C167.006 29.4133 167.172 28.9618 167.259 28.4923C167.356 27.9899 167.405 27.4794 167.404 26.9677V22.2286H170.305V32.4637C170.315 33.2731 170.187 34.0784 169.926 34.8448C169.689 35.529 169.302 36.1522 168.794 36.6691C168.271 37.1885 167.638 37.584 166.941 37.8266C166.208 38.0892 165.357 38.2204 164.389 38.2199Z" fill="#1117A3"/>
<path d="M181.161 32.4793C180.637 33.0003 180.01 33.4082 179.321 33.6776C178.685 33.9254 178.006 34.0428 177.323 34.023C176.648 33.9992 175.984 33.8443 175.369 33.5669C174.733 33.2823 174.162 32.8692 173.694 32.3538C173.193 31.8012 172.798 31.161 172.53 30.4654C172.24 29.7309 172.095 28.8965 172.094 27.9623C172.086 27.1172 172.246 26.2788 172.563 25.4952C172.853 24.774 173.282 24.1164 173.825 23.5596C174.341 23.0337 174.956 22.6141 175.634 22.3246C176.299 22.0372 177.021 21.9039 177.745 21.9348C178.459 21.9653 179.032 22.1249 179.464 22.4134C179.861 22.6654 180.187 23.0136 180.413 23.4256C180.607 23.7857 180.714 24.1859 180.726 24.5943C180.733 24.987 180.67 25.2992 180.536 25.5396C180.285 25.1609 179.903 24.888 179.463 24.7734C179.027 24.6482 178.576 24.5832 178.123 24.5802C177.438 24.5802 176.865 24.7475 176.404 25.0821C175.951 25.4062 175.59 25.8407 175.354 26.3439C175.114 26.8578 174.989 27.4174 174.986 27.9842C174.973 28.5493 175.088 29.1099 175.321 29.6252C175.552 30.1314 175.914 30.567 176.37 30.8869C176.839 31.222 177.423 31.3893 178.123 31.3888C178.719 31.3888 179.21 31.2554 179.597 30.9884C179.984 30.7215 180.302 30.3668 180.524 29.9537C180.762 29.508 180.928 29.0273 181.015 28.5298C181.111 28.0122 181.16 27.487 181.161 26.9607V22.2217H184.061V33.7474H181.161V32.4793Z" fill="#1117A3"/>
<path d="M192.034 25.7595C191.929 25.4966 191.76 25.2636 191.543 25.0807C191.34 24.9132 191.11 24.7816 190.862 24.6916C190.633 24.6056 190.392 24.5566 190.148 24.5464C189.954 24.5337 189.761 24.5604 189.578 24.6246C189.31 24.7134 189.135 24.8654 189.053 25.0807C188.972 25.2959 189.013 25.4999 189.176 25.6925C189.31 25.8415 189.522 25.9862 189.813 26.1267C190.104 26.2672 190.428 26.4228 190.784 26.5934C191.142 26.7649 191.51 26.9578 191.89 27.1721C192.266 27.3851 192.615 27.6429 192.928 27.9397C193.244 28.2411 193.505 28.5951 193.699 28.9858C193.9 29.3862 194 29.8608 194 30.4097C194 31.0478 193.859 31.6078 193.576 32.0894C193.3 32.5641 192.913 32.9652 192.448 33.2582C191.963 33.5608 191.425 33.7685 190.863 33.87C190.273 33.9812 189.67 33.9924 189.077 33.9031C188.459 33.8096 187.865 33.6021 187.324 33.2913C186.747 32.9635 186.245 32.5202 185.849 31.9893L187.636 30.0763C188.008 30.5213 188.399 30.8401 188.808 31.0328C189.164 31.211 189.551 31.3205 189.947 31.3556C190.297 31.3773 190.591 31.3253 190.829 31.1999C191.068 31.0744 191.213 30.9038 191.265 30.6881C191.317 30.4734 191.254 30.236 191.075 29.9762C190.896 29.7163 190.554 29.4604 190.048 29.2085C189.571 28.9708 189.106 28.7259 188.652 28.474C188.22 28.2372 187.816 27.9535 187.446 27.6282C187.106 27.3294 186.819 26.9761 186.597 26.5828C186.373 26.1658 186.261 25.698 186.273 25.2252C186.263 24.7292 186.379 24.2388 186.608 23.7985C186.826 23.3894 187.131 23.0325 187.501 22.7524C187.882 22.4666 188.314 22.2552 188.774 22.1293C189.254 21.9957 189.751 21.9358 190.249 21.9516C191.112 21.9963 191.77 22.1843 192.224 22.5156C192.679 22.8469 192.962 23.2252 193.073 23.6504C193.186 24.0621 193.146 24.5005 192.962 24.8854C192.779 25.2862 192.446 25.5999 192.034 25.7595Z" fill="#1117A3"/>
</svg>
