<svg width="24" height="32" viewBox="0 0 24 32" fill="none" xmlns="http://www.w3.org/2000/svg">
<path d="M10.7668 31.3544C1.68563 18.1894 0 16.8383 0 12C0 5.37256 5.37256 0 12 0C18.6274 0 24 5.37256 24 12C24 16.8383 22.3144 18.1894 13.2332 31.3544C12.6373 32.2152 11.3626 32.2152 10.7668 31.3544Z" fill="#1117A3"/>
<path d="M13.6379 14.744L11.8379 10.08C11.7846 9.94133 11.7286 9.78133 11.6699 9.6C11.6113 9.41333 11.5553 9.216 11.5019 9.008C11.3899 9.44 11.2753 9.8 11.1579 10.088L9.35794 14.744H13.6379ZM16.8699 19H15.6699C15.5313 19 15.4193 18.9653 15.3339 18.896C15.2486 18.8267 15.1846 18.7387 15.1419 18.632L14.0699 15.864H8.92594L7.85394 18.632C7.82194 18.728 7.7606 18.8133 7.66994 18.888C7.57927 18.9627 7.46727 19 7.33394 19H6.13394L10.7179 7.536H12.2859L16.8699 19Z" fill="white"/>
</svg>
