<svg width="24" height="32" viewBox="0 0 24 32" fill="none" xmlns="http://www.w3.org/2000/svg">
<path d="M10.7668 31.3544C1.68563 18.1894 0 16.8383 0 12C0 5.37256 5.37256 0 12 0C18.6274 0 24 5.37256 24 12C24 16.8383 22.3144 18.1894 13.2332 31.3544C12.6373 32.2152 11.3626 32.2152 10.7668 31.3544Z" fill="#1117A3"/>
<path d="M12.8161 17.768C13.2588 17.768 13.6401 17.7173 13.9601 17.616C14.2801 17.5147 14.5415 17.3733 14.7441 17.192C14.9521 17.0053 15.1041 16.7867 15.2001 16.536C15.2961 16.28 15.3441 16 15.3441 15.696C15.3441 15.104 15.1335 14.6373 14.7121 14.296C14.2908 13.9493 13.6588 13.776 12.8161 13.776H10.3361V17.768H12.8161ZM10.3361 8.76V12.672H12.3841C12.8215 12.672 13.2001 12.624 13.5201 12.528C13.8455 12.432 14.1121 12.2987 14.3201 12.128C14.5335 11.9573 14.6908 11.752 14.7921 11.512C14.8935 11.2667 14.9441 11 14.9441 10.712C14.9441 10.0347 14.7415 9.54133 14.3361 9.232C13.9308 8.91733 13.3015 8.76 12.4481 8.76H10.3361ZM12.4481 7.536C13.1521 7.536 13.7575 7.60533 14.2641 7.744C14.7761 7.88267 15.1948 8.08 15.5201 8.336C15.8508 8.592 16.0935 8.90667 16.2481 9.28C16.4028 9.648 16.4801 10.064 16.4801 10.528C16.4801 10.8107 16.4348 11.0827 16.3441 11.344C16.2588 11.6 16.1281 11.84 15.9521 12.064C15.7761 12.288 15.5521 12.4907 15.2801 12.672C15.0135 12.848 14.6988 12.992 14.3361 13.104C15.1788 13.264 15.8108 13.5653 16.2321 14.008C16.6588 14.4453 16.8721 15.0213 16.8721 15.736C16.8721 16.2213 16.7815 16.664 16.6001 17.064C16.4241 17.464 16.1628 17.808 15.8161 18.096C15.4748 18.384 15.0535 18.608 14.5521 18.768C14.0508 18.9227 13.4801 19 12.8401 19H8.79213V7.536H12.4481Z" fill="white"/>
</svg>
